<?xml version="1.0" standalone="no"?>
<!DOCTYPE svg PUBLIC "-//W3C//DTD SVG 1.1//EN" "http://www.w3.org/Graphics/SVG/1.1/DTD/svg11.dtd" >
<svg xmlns="http://www.w3.org/2000/svg">
<metadata>
Created by FontForge 20120731 at Thu Jul 21 11:21:25 2016
 By admin
</metadata>
<defs>
<font id="iconfont" horiz-adv-x="1024" >
  <font-face 
    font-family="iconfont"
    font-weight="500"
    font-stretch="normal"
    units-per-em="1024"
    panose-1="2 0 6 3 0 0 0 0 0 0"
    ascent="896"
    descent="-128"
    x-height="792"
    bbox="0 -208 1027 886"
    underline-thickness="50"
    underline-position="-100"
    unicode-range="U+0078-E67A"
  />
<missing-glyph horiz-adv-x="374" 
d="M34 0v682h272v-682h-272zM68 34h204v614h-204v-614z" />
    <glyph glyph-name=".notdef" horiz-adv-x="374" 
d="M34 0v682h272v-682h-272zM68 34h204v614h-204v-614z" />
    <glyph glyph-name=".null" horiz-adv-x="0" 
 />
    <glyph glyph-name="nonmarkingreturn" horiz-adv-x="341" 
 />
    <glyph glyph-name="x" unicode="x" horiz-adv-x="1001" 
d="M281 543q-27 -1 -53 -1h-83q-18 0 -36.5 -6t-32.5 -18.5t-23 -32t-9 -45.5v-76h912v41q0 16 -0.5 30t-0.5 18q0 13 -5 29t-17 29.5t-31.5 22.5t-49.5 9h-133v-97h-438v97zM955 310v-52q0 -23 0.5 -52t0.5 -58t-10.5 -47.5t-26 -30t-33 -16t-31.5 -4.5q-14 -1 -29.5 -0.5
t-29.5 0.5h-32l-45 128h-439l-44 -128h-29h-34q-20 0 -45 1q-25 0 -41 9.5t-25.5 23t-13.5 29.5t-4 30v167h911zM163 247q-12 0 -21 -8.5t-9 -21.5t9 -21.5t21 -8.5q13 0 22 8.5t9 21.5t-9 21.5t-22 8.5zM316 123q-8 -26 -14 -48q-5 -19 -10.5 -37t-7.5 -25t-3 -15t1 -14.5
t9.5 -10.5t21.5 -4h37h67h81h80h64h36q23 0 34 12t2 38q-5 13 -9.5 30.5t-9.5 34.5q-5 19 -11 39h-368zM336 498v228q0 11 2.5 23t10 21.5t20.5 15.5t34 6h188q31 0 51.5 -14.5t20.5 -52.5v-227h-327z" />
    <glyph glyph-name="uniE600" unicode="&#xe600;" 
d="M96 -84q-13 0 -22.5 9.5t-9.5 22.5v448q0 13 9.5 22.5t22.5 9.5t22.5 -9.5t9.5 -22.5v-448q0 -13 -9.5 -22.5t-22.5 -9.5zM864 428h-189q12 28 19.5 83t0.5 107q-5 45 -30 77.5t-63 45.5q-29 10 -56.5 6t-43.5 -21q-12 -12 -22 -35t-15 -41t-14 -52q-17 -70 -28 -89
q-14 -23 -40 -43t-41 -27t-28 -11h-90q-13 0 -22.5 -9.5t-9.5 -22.5v-448q0 -13 9.5 -22.5t22.5 -9.5h87q22 -12 49 -24t83.5 -26t108.5 -14h216q33 0 68.5 13t51 38.5t44 207.5t28.5 220q0 39 -31 68t-65 29zM833 -63q-4 -7 -24.5 -14t-40.5 -7h-216q-23 0 -47.5 3.5t-45 9
t-40 12.5t-34 14t-25.5 12.5t-18 8.5l-6 4h-16h-64v384h64q1 0 7 2h1h1h2h1l1 1q12 4 26 10.5t37 19.5t45.5 34t36.5 46q16 26 35 105q21 85 34 99q3 3 12.5 3t24.5 -4q41 -17 48 -70q5 -46 -4 -98.5t-16 -72t-12 -30.5q-7 -16 2 -31q9 -14 27 -14h235q8 0 20 -10.5
t12 -22.5q0 -33 -26.5 -202.5t-36.5 -191.5z" />
    <glyph glyph-name="uniE601" unicode="&#xe601;" 
d="M877 320zM758.5 -138.5q9.5 9.5 10 22.5t-7.5 22l-377 376q-12 12 -12 18t12 18l377 376q8 9 7.5 22t-10 22t-22.5 9.5t-22 -7.5l-418 -419q-7 -7 -8 -18v-6q1 -11 8 -18l418 -419q9 -8 22 -8t22.5 9.5z" />
    <glyph glyph-name="uniE602" unicode="&#xe602;" 
d="M877 320zM512 -148q-185 0 -316.5 131.5t-131.5 316.5t131.5 316.5t316.5 131.5t316.5 -131.5t131.5 -316.5t-131.5 -316.5t-316.5 -131.5zM512 684q-104 0 -192.5 -51.5t-140 -140t-51.5 -192.5t51.5 -192.5t140 -140t192.5 -51.5t192.5 51.5t140 140t51.5 192.5
t-51.5 192.5t-140 140t-192.5 51.5zM727 419q-9 9 -22.5 9t-22.5 -9l-234 -236l-103 106q-9 9 -22.5 9.5t-23 -9t-9.5 -22.5t9 -23l126 -129h1v-1q1 -1 7 -4q0 -1 1 -1.5t2 -1.5q6 -2 12 -2t12 2q1 1 2 1.5t2 1.5q5 3 7 4v1l256 259q10 9 9.5 22t-9.5 23zM727 419z" />
    <glyph glyph-name="uniE603" unicode="&#xe603;" 
d="M877 320zM575 302l372 369q13 13 13 32t-13 32t-31.5 13t-31.5 -13l-372 -370l-368 370q-13 13 -31.5 13t-32 -13t-13.5 -31.5t13 -32.5l369 -369l-372 -370q-13 -13 -13 -31.5t13 -31.5t31.5 -13t31.5 13l372 369l371 -373q14 -13 32.5 -13t31.5 13t13 31.5t-13 31.5z
M575 302z" />
    <glyph glyph-name="uniE604" unicode="&#xe604;" 
d="M864.5 556q-13.5 0 -22.5 -9t-9 -23v-577q0 -13 -9.5 -22.5t-22.5 -9.5h-578q-13 0 -22.5 9.5t-9.5 22.5v701l298 -178l4 -2q7 -5 16 -6h1h1h1v0h2h1q9 1 16 6l4 2l300 179l22 12q23 14 28 18t3 9q-7 28 -31 44.5t-56 16.5h-1h-86h-491q-39 0 -67.5 -28.5t-28.5 -67.5
v-706q0 -40 28.5 -68t67.5 -28h578q39 0 67.5 28t28.5 68v577q0 14 -9.5 23t-23 9zM773 685l-261 -157l-261 157h463h59zM641 205q13 0 22.5 9.5t9.5 22.5t-9.5 22.5t-22.5 9.5h-83l72 72q9 9 9 22.5t-9 22.5t-22.5 9t-22.5 -9l-73 -73l-73 73q-10 9 -23 9t-22.5 -9
t-9.5 -22.5t9 -22.5l72 -72h-81q-13 0 -22.5 -9.5t-9.5 -22.5t9.5 -22.5t22.5 -9.5h99v-64h-99q-13 0 -22.5 -9.5t-9.5 -22.5t9.5 -22.5t22.5 -9.5h99v-65q0 -13 9 -22.5t22.5 -9.5t23 9.5t9.5 22.5v65h94q13 0 22.5 9.5t9.5 22.5t-9.5 22.5t-22.5 9.5h-94v64h94z" />
    <glyph glyph-name="uniE605" unicode="&#xe605;" 
d="M960 438v95q0 26 -18.5 45t-45.5 19h-768q-27 0 -45.5 -19t-18.5 -45v-95q13 0 22.5 -9.5t9.5 -23t-9.5 -22.5t-22.5 -9v-144q13 0 22.5 -9.5t9.5 -23t-9.5 -22.5t-22.5 -9v-98q0 -26 18.5 -44.5t45.5 -18.5h768q27 0 45.5 18.5t18.5 44.5v98q-13 0 -22.5 9t-9.5 22.5
t9.5 23t22.5 9.5v144q-13 0 -22.5 9t-9.5 22.5t9.5 23t22.5 9.5zM896 475q-32 -28 -32 -70.5t32 -71.5v-62q-32 -29 -32 -71.5t32 -70.5v-27q0 -14 -9.5 -23t-22.5 -9h-704q-13 0 -22.5 9t-9.5 23v25q32 29 32 71t-32 71v66q32 28 32 70.5t-32 71.5v25q0 13 9.5 22.5
t22.5 9.5h704q13 0 22.5 -9.5t9.5 -22.5v-27zM641 317q13 0 22.5 9.5t9.5 22.5t-9.5 22.5t-22.5 9.5h-83l72 72q9 9 9 22.5t-9 22.5t-22.5 9t-22.5 -9l-73 -73l-73 73q-10 9 -23 9t-22.5 -9t-9.5 -22.5t9 -22.5l72 -72h-81q-13 0 -22.5 -9.5t-9.5 -22.5t9.5 -22.5t22.5 -9.5
h99v-64h-99q-13 0 -22.5 -9.5t-9.5 -22.5t9.5 -22.5t22.5 -9.5h99v-65q0 -13 9 -22.5t22.5 -9.5t23 9.5t9.5 22.5v65h94q13 0 22.5 9.5t9.5 22.5t-9.5 22.5t-22.5 9.5h-94v64h94z" />
    <glyph glyph-name="uniE606" unicode="&#xe606;" 
d="M510 -127q-26 0 -71 39l-190 157h-85q-42 0 -71 29t-29 71v263q0 41 29 70t71 29h85l190 158q44 38 71 38q21 0 36.5 -15t15.5 -47v-730q0 -32 -15.5 -47t-36.5 -15zM164 465q-14 0 -24 -10t-10 -23v-263q0 -14 10 -24t24 -10h99q14 0 24 -9l199 -167q5 -6 9 -9v701
l-9 -9l-199 -167q-10 -10 -24 -10h-99zM678 74q-11 0 -20 6q-11 8 -13 21.5t6 24.5l13 18q22 31 32.5 47.5t21 46.5t10.5 62q0 34 -9.5 62.5t-19 44t-31.5 44.5q-10 13 -17 23q-8 11 -6 24.5t13 22t24.5 6t22.5 -13.5q5 -7 16 -22q24 -32 36 -51.5t24.5 -57.5t12.5 -82
q0 -42 -13.5 -81.5t-26 -60t-37.5 -53.5l-13 -17q-9 -14 -26 -14zM790 -39q-12 0 -21 8q-11 9 -12 23t8 24q61 69 95 135.5t34 149t-34 149t-95 134.5q-9 11 -8 24.5t11.5 22.5t24 8t22.5 -11q67 -75 106 -153t39 -175t-39.5 -174.5t-105.5 -153.5q-10 -11 -25 -11zM790 -39
z" />
    <glyph glyph-name="uniE607" unicode="&#xe607;" 
d="M896 364q0 104 -51.5 192.5t-140 140t-192.5 51.5t-192.5 -51.5t-140 -140t-51.5 -192.5q0 -77 29 -146.5t81 -122.5l1 -1q0 -1 1 -1l2 -2l217 -217q22 -22 53 -22t53 22l217 217q0 1 1 1l2 2l1 1q52 53 81 122.5t29 146.5zM512 236q-53 0 -90.5 37.5t-37.5 90.5
t37.5 90.5t90.5 37.5t90.5 -37.5t37.5 -90.5t-37.5 -90.5t-90.5 -37.5z" />
    <glyph glyph-name="uniE608" unicode="&#xe608;" 
d="M448 140q-19 0 -26 6q-9 10 -9 23t9 22l109 109l-109 102q-9 10 -9 23t9.5 22.5t22.5 9.5t22 -10l128 -128q10 -9 10 -22t-10 -23l-128 -128q0 -6 -19 -6z" />
    <glyph glyph-name="uniE609" unicode="&#xe609;" 
d="M576 140q-19 0 -26 6l-128 128q-9 10 -9 23t9 22l128 128q10 10 23 10t22.5 -9.5t9.5 -22.5t-10 -23l-102 -102l102 -102q10 -10 10 -23t-10 -22q0 -13 -19 -13z" />
    <glyph glyph-name="uniE60A" unicode="&#xe60a;" 
d="M512 684q-120 0 -204 -84t-84 -204q0 -41 10.5 -79.5t37.5 -83t47.5 -72.5t64.5 -85q8 -12 31 -42t40 -54.5t31 -50.5q13 -13 26 -13t26 13q18 30 57 81t45 60q4 5 13 17q40 55 59.5 83t43.5 70.5t34 79t10 76.5q0 120 -84 204t-204 84zM589 108q-51 -64 -77 -102
q-11 16 -38.5 53.5t-38.5 54.5q-41 54 -59.5 80t-43.5 66t-34.5 72t-9.5 64q0 91 66.5 157.5t157.5 66.5t157.5 -66.5t66.5 -157.5q0 -61 -36 -125t-111 -163zM512 396zM416 396q0 40 28 68t68 28t68 -28t28 -68t-28 -68t-68 -28t-68 28t-28 68z" />
    <glyph glyph-name="uniE60B" unicode="&#xe60b;" 
d="M512 646q-106 0 -192 -58l-26 38q-9 14 -24 11.5t-20 -17.5l-45 -141q0 -10 8 -21t17 -11l148 7q14 0 21 14t-2 24l-32 38v7q54 45 147 45q115 0 198.5 -83.5t83.5 -198.5t-83.5 -198.5t-198.5 -83.5t-198.5 83.5t-83.5 198.5q0 14 -8.5 23t-23 9t-23.5 -9t-9 -23
q0 -94 46 -174t126 -126t174 -46t174 46t126 126t46 174t-46 174t-126 126t-174 46z" />
    <glyph glyph-name="uniE60C" unicode="&#xe60c;" 
d="M768 428q-14 0 -23 -9t-9 -23v-378q0 -18 -11.5 -28t-26.5 -10h-372q-18 0 -28 11.5t-10 26.5v378q0 14 -9 23t-23 9t-23 -9t-9 -23v-378q0 -43 29.5 -72.5t72.5 -29.5h365q43 0 73 29.5t30 72.5v378q4 14 -3.5 23t-22.5 9zM461 76v320q0 14 -8 23t-18 9
q-11 0 -24.5 -9.5t-13.5 -22.5v-320q0 -14 8.5 -23t23 -9t23.5 9t9 23zM627 76v320q0 14 -11.5 23t-26.5 9q-26 0 -26 -32v-320q0 -14 8 -23t18 -9q11 0 24.5 9.5t13.5 22.5zM832 556h-160v45q0 33 -25 58t-58 25h-154q-33 0 -58 -25t-25 -58v-45h-160q-14 0 -23 -9t-9 -23
t9 -23t23 -9h640q14 0 23 9t9 23t-9 23t-23 9zM416 601q0 19 19 19h154q19 0 19 -19v-45h-192v45z" />
    <glyph glyph-name="uniE60D" unicode="&#xe60d;" 
d="M896 402q0 13 -6 20l-141 211l-7 6h-6h-6h-7h-422h-7h-6h-6l-7 -6l-141 -211q-6 -7 -6 -20v0q0 -12 6 -12l352 -423l7 -6h6q3 0 9.5 -3.5t9.5 -3.5q13 0 20 7h6l6 6l352 423q-5 0 -6.5 1t-0.5 5.5t1 5.5zM288 543l38 -109h-108zM608 370l-96 -288l-96 288h192zM429 434
l83 122l83 -122h-166zM570 588h108l-38 -109zM384 479l-38 109h108zM346 370l76 -236l-192 236h116zM678 370h122l-198 -236zM698 434l38 109l70 -109h-108z" />
    <glyph glyph-name="uniE60E" unicode="&#xe60e;" 
d="M864 511h-704q-14 0 -23 -8.5t-9 -23.5v-179q0 -14 9 -23t23 -9h26v-320q0 -14 8.5 -23t23.5 -9h588q15 0 23.5 9t8.5 23v320h26q14 0 23 9t9 23v179q0 15 -9 23.5t-23 8.5zM774 268v-288h-108v288h108zM832 447v-109h-173v109h173zM595 268v-288h-166v288h166zM595 447
v-109h-166v109h166zM358 268v-288h-108v288h108zM358 447v-109h-166v109h166zM538 543q9 -4 22 -0.5t22 13.5q23 39 47.5 67.5t42.5 28.5q32 0 32 -25.5t-26 -25.5q-14 0 -23 -9t-9 -23.5t9 -23t23 -8.5q25 0 43.5 9t28 23.5t14 29t4.5 27.5q0 31 -23 60.5t-67 29.5
q-26 0 -52.5 -15.5t-46.5 -41t-32 -45t-22 -39.5q-5 -4 -1 -15.5t14 -16.5zM346 537q14 0 23 8.5t9 23t-9 23.5t-23 9q-13 0 -16.5 6.5t-3.5 18.5q0 9 1 13t5.5 8.5t13.5 4.5q14 0 44 -33t45 -63q0 -10 19 -19h7q13 0 19 6q10 5 13.5 18t-0.5 27q0 6 -7 6q-5 14 -17.5 33
t-30.5 40t-43 35t-49 14q-44 0 -64 -27.5t-20 -62.5q0 -38 19.5 -63.5t64.5 -25.5z" />
    <glyph glyph-name="uniE60F" unicode="&#xe60f;" 
d="M890 383q-5 14 -18 23t-27 9l-211 13l-77 205q-6 18 -25.5 25.5t-39 0t-25.5 -25.5l-77 -205l-211 -6q-14 0 -27 -9t-18 -23q-9 -36 13 -58l173 -134l-58 -212q-10 -31 20 -51q28 -19 57 0l173 122l179 -122q7 -6 26 -6t25 6q30 20 20 51l-58 212l173 134q22 22 13 51z
" />
    <glyph glyph-name="uniE610" unicode="&#xe610;" 
d="M717 -71q-19 0 -26 6l-179 122l-179 -122q-29 -19 -58 0q-29 20 -19 51l64 212l-173 134q-22 22 -13 51q5 14 18 23t27 9l211 13l77 205q6 18 25.5 25.5t39 0t25.5 -25.5l77 -205l217 -6q15 0 27.5 -9t17.5 -23q10 -32 -19 -52l-173 -140l58 -212q10 -31 -20 -51
q-2 0 -10 -3t-15 -3zM512 127q13 0 19 -6l167 -115l-58 192q0 12 0.5 17.5t3.5 11.5t9 9l160 128h-205q-10 0 -18 8t-8 18l-70 185l-70 -192q0 -5 -8.5 -12t-17.5 -7l-205 -6l160 -128q6 0 9 -4.5t3.5 -8.5t0.5 -13l-58 -192l167 115h19z" />
    <glyph glyph-name="uniE611" unicode="&#xe611;" 
d="M371 358zM320 357.5q0 21.5 15 36.5t36 15t36 -15t15 -36.5t-15 -36.5t-36 -15t-36 15t-15 36.5zM512 358zM461 357.5q0 21.5 15 36.5t36 15t36 -15t15 -36.5t-15 -36.5t-36 -15t-36 15t-15 36.5zM653 358zM602 357.5q0 21.5 15 36.5t36 15t36 -15t15 -36.5t-15 -36.5
t-36 -15t-36 15t-15 36.5zM378 -84h-13q-19 10 -19 32v128q-100 38 -159 117t-59 171q0 134 112.5 227t271.5 93t271.5 -93t112.5 -227q0 -85 -50 -157.5t-135 -116t-186 -46.5l-128 -122q-7 -6 -19 -6zM512 620q-134 0 -227 -75t-93 -181q0 -76 52 -139.5t140 -97.5
q19 -9 19 -32v-77l83 77q7 13 26 13q134 0 227 75t93 181t-93 181t-227 75z" />
    <glyph glyph-name="uniE612" unicode="&#xe612;" 
d="M800 160h-256v128h256q14 0 23 9t9 23t-9 23t-23 9h-243l230 230q10 10 10 23t-9.5 22.5t-22.5 9.5t-23 -10l-230 -230l-230 237q-10 9 -23 9t-22.5 -9.5t-9.5 -22.5t10 -22l230 -237h-243q-14 0 -23 -9t-9 -23t9 -23t23 -9h256v-128h-256q-14 0 -23 -9t-9 -23t9 -23
t23 -9h256v-160q0 -14 9 -23t23 -9t23 9t9 23v160h256q14 0 23 9t9 23t-9 23t-23 9z" />
    <glyph glyph-name="uniE613" unicode="&#xe613;" 
d="M704 -52q-13 0 -19 6l-154 103l-77 -77q-5 -5 -15.5 -8t-16.5 2q-19 9 -19 32v140q0 13 7 20l243 262q9 10 22 10t22.5 -10t9.5 -22.5t-9 -22.5l-237 -256v-51l45 38q17 17 38 7l141 -90l109 531l-538 -262l122 -77q10 -5 12.5 -20t-6.5 -25q-5 -9 -20 -13t-25 1
l-166 108q-13 13 -13 26q0 16 19 26l640 320q22 10 32 0q13 -7 13 -32l-128 -640q0 -16 -19 -26h-13z" />
    <glyph glyph-name="uniE614" unicode="&#xe614;" 
d="M832 652h-640q-28 0 -46 -19.5t-18 -44.5v-448q0 -28 19.5 -46t44.5 -18h256v-64h-96q-14 0 -23 -9t-9 -23t9 -23t23 -9h320q14 0 23 9t9 23t-9 23t-23 9h-96v64h256q28 0 46 19.5t18 44.5v448q0 24 -20 44t-44 20zM832 140h-640v448h640v-448z" />
    <glyph glyph-name="uniE615" unicode="&#xe615;" 
d="M768 652h-512q-38 0 -67 -29t-29 -67v-512q0 -38 29 -67t67 -29h512q38 0 67 29t29 67v512q0 38 -29 67t-67 29zM730 402l-256 -256q-7 -6 -26 -6t-26 6l-128 128q-9 10 -9 23t9.5 22.5t22.5 9.5t22 -10l109 -102l230 230q10 10 23 10t22 -10q19 -19 7 -45z" />
    <glyph glyph-name="uniE616" unicode="&#xe616;" 
d="M768 652h-512q-38 0 -67 -29t-29 -67v-512q0 -38 29 -67t67 -29h512q38 0 67 29t29 67v512q0 38 -29 67t-67 29zM800 44q0 -14 -9 -23t-23 -9h-512q-14 0 -23 9t-9 23v512q0 14 9 23t23 9h512q14 0 23 -9t9 -23v-512zM448 140q-19 0 -26 6l-128 128q-9 10 -9 23t9.5 22.5
t22.5 9.5t22 -10l109 -102l230 230q10 10 23 10t22.5 -9.5t9.5 -22.5t-10 -23l-256 -256q0 -6 -19 -6z" />
    <glyph glyph-name="uniE617" unicode="&#xe617;" 
d="M608 -52q-14 0 -23 9t-9 23v384q0 13 13 26l198 166q5 5 5 12t-5 7q0 13 -19 13h-512q-19 0 -19 -13q0 -1 -1.5 -5.5t0 -7.5t7.5 -6l199 -166q0 -4 3 -13.5t3 -12.5v-256q0 -14 -9 -23t-23 -9t-23 9t-9 23v243l-186 154q-19 19 -24 45.5t5 50.5q5 23 26.5 37t50.5 14h512
q25 0 46 -14t31 -37q10 -24 4.5 -50t-23.5 -40l-192 -160v-371q4 -14 -3.5 -23t-22.5 -9z" />
    <glyph glyph-name="uniE618" unicode="&#xe618;" 
d="M342 230q-14 0 -23 -9t-9 -23t9 -23t23 -9h142v-84q0 -14 9 -23t23 -9t23 9t9 23v84h142q14 0 23 9t9 23t-9 23t-23 9h-142v53h142q14 0 23 8.5t9 22.5t-9 23t-23 9h-117l118 118q9 10 9 22.5t-9 22t-22 9.5t-23 -9l-130 -131l-131 135q-9 9 -22 9t-22.5 -9.5t-9.5 -22.5
t10 -22l119 -122h-118q-14 0 -23 -9t-9 -22.5t9 -22.5t23 -9h142v-53h-142zM516 696q-104 0 -194.5 -51.5t-144.5 -140.5l-11 43q-2 11 -12 17t-21 3t-17 -12.5t-3 -20.5l27 -108q2 -9 9.5 -15t17.5 -6q3 0 6 1l108 27q11 2 17 12t3.5 21t-12.5 17t-21 3l-43 -10
q46 76 124 120.5t167 44.5q92 0 170.5 -46t124.5 -124.5t46 -170.5t-46 -170.5t-124.5 -124.5t-170.5 -46t-171 46t-124.5 124.5t-45.5 170.5q0 11 -8 19.5t-19.5 8.5t-19.5 -8.5t-8 -19.5q0 -107 53 -198.5t144.5 -144.5t198.5 -53t198.5 53t144.5 144.5t53 198.5
t-53 198.5t-144.5 144.5t-198.5 53z" />
    <glyph glyph-name="uniE619" unicode="&#xe619;" horiz-adv-x="1025" 
d="M844 298q0 69 -35 128t-93 93q-10 5 -17 5q-13 0 -22 -9t-9 -21q0 -18 16 -27q45 -26 71.5 -71t26.5 -98q0 -55 -27.5 -100.5t-73.5 -70.5q-15 -9 -15 -26q0 -13 9 -22t22 -9l15 4q60 33 96 93t36 131zM808 675q-10 6 -18 6q-12 0 -21 -9t-9 -22q0 -18 17 -27
q85 -50 136 -136.5t51 -189t-50.5 -188.5t-136.5 -136q-18 -10 -18 -28q0 -13 9 -22t21 -9q8 0 18 6q100 58 158.5 158.5t58.5 219.5q0 118 -58.5 218.5t-157.5 158.5zM81 510h151q19 0 57 20t129 87q32 23 68 51q1 -398 1 -399q0 -13 9 -22t21.5 -9t21.5 9t9 22v26v65v88
q0 49 -0.5 97t-0.5 87v65v25q0 23 -21 33t-39 -4q-42 -35 -115 -88q-111 -82 -141 -92h-131h-2h-67q-12 0 -21 -9t-9 -21v-487q0 -12 9 -21t21 -9h224q29 -10 128 -91q49 -40 102 -87q11 -10 25 -10q8 0 15 4q22 9 22 33v171v2v0q-1 12 -10 20.5t-21 8.5t-21 -9t-9 -22v-28
v-56v-28q-28 24 -53 45q-83 67 -119 87.5t-56 20.5h-1h-1h-168q-16 0 -21 5.5t-5 22.5v373q0 12 3.5 18t15.5 6z" />
    <glyph glyph-name="uniE61A" unicode="&#xe61a;" 
d="M512 746q-91 0 -173.5 -35.5t-142 -95t-95 -142t-35.5 -173.5t35.5 -173.5t95 -142t142 -95t173.5 -35.5t173.5 35.5t142 95t95 142t35.5 173.5t-35.5 173.5t-95 142t-142 95t-173.5 35.5zM544 76q0 -13 -9.5 -22.5t-22.5 -9.5t-22.5 9.5t-9.5 22.5v288q0 13 9.5 22.5
t22.5 9.5t22.5 -9.5t9.5 -22.5v-288zM512 460q-20 0 -34 14t-14 34t14 34t34 14t34 -14t14 -34t-14 -34t-34 -14z" />
    <glyph glyph-name="uniE61B" unicode="&#xe61b;" 
d="M512 -146q-91 0 -173.5 35.5t-142 95t-95 142t-35.5 173.5t35.5 173.5t95 142t142 95t173.5 35.5t173.5 -35.5t142 -95t95 -142t35.5 -173.5t-35.5 -173.5t-95 -142t-142 -95t-173.5 -35.5zM512 682q-104 0 -192 -51t-139 -139t-51 -192t51 -192t139 -139t192 -51t192 51
t139 139t51 192t-51 192t-139 139t-192 51zM512 508zM464 508q0 20 14 34t34 14t34 -14t14 -34t-14 -34t-34 -14t-34 14t-14 34zM512 44q-13 0 -22.5 9.5t-9.5 22.5v288q0 13 9.5 22.5t22.5 9.5t22.5 -9.5t9.5 -22.5v-288q0 -13 -9.5 -22.5t-22.5 -9.5z" />
    <glyph glyph-name="uniE61C" unicode="&#xe61c;" 
d="M512 106q-79 0 -135.5 56.5t-56.5 135.5v256q0 79 56.5 135.5t135.5 56.5t135.5 -56.5t56.5 -135.5v-256q0 -79 -56.5 -135.5t-135.5 -56.5zM512 682q-53 0 -90.5 -37.5t-37.5 -90.5v-256q0 -53 37.5 -90.5t90.5 -37.5t90.5 37.5t37.5 90.5v256q0 53 -37.5 90.5
t-90.5 37.5zM864 332v128q0 13 -9.5 22.5t-22.5 9.5t-22.5 -9.5t-9.5 -22.5v-128q0 -120 -84.5 -205t-203.5 -85t-203.5 85t-84.5 205v128q0 13 -9.5 22.5t-22.5 9.5t-22.5 -9.5t-9.5 -22.5v-128q0 -138 92.5 -239t227.5 -114v-63h-192q-13 0 -22.5 -9.5t-9.5 -22.5
t9.5 -22.5t22.5 -9.5h448q13 0 22.5 9.5t9.5 22.5t-9.5 22.5t-22.5 9.5h-192v63q135 13 227.5 114t92.5 239z" />
    <glyph glyph-name="uniE61D" unicode="&#xe61d;" 
d="M384 492h512q13 0 22.5 9.5t9.5 22.5t-9.5 22.5t-22.5 9.5h-512q-13 0 -22.5 -9.5t-9.5 -22.5t9.5 -22.5t22.5 -9.5zM896 332h-512q-13 0 -22.5 -9.5t-9.5 -22.5t9.5 -22.5t22.5 -9.5h512q13 0 22.5 9.5t9.5 22.5t-9.5 22.5t-22.5 9.5zM896 108h-512q-13 0 -22.5 -9.5
t-9.5 -22.5t9.5 -22.5t22.5 -9.5h512q13 0 22.5 9.5t9.5 22.5t-9.5 22.5t-22.5 9.5zM192 524zM128 524q0 26 19 45t45 19t45 -19t19 -45t-19 -45t-45 -19t-45 19t-19 45zM192 300zM128 300q0 26 19 45t45 19t45 -19t19 -45t-19 -45t-45 -19t-45 19t-19 45zM192 76zM128 76
q0 26 19 45t45 19t45 -19t19 -45t-19 -45t-45 -19t-45 19t-19 45z" />
    <glyph glyph-name="uniE61E" unicode="&#xe61e;" 
d="M792.5 326.5q-9.5 9.5 -22.5 9.5t-22 -10l-204 -203v561q0 13 -9.5 22.5t-22.5 9.5t-22.5 -9.5t-9.5 -22.5v-563l-234 235q-9 10 -22.5 10t-23 -9.5t-9.5 -22.5t10 -23l287 -289q5 -5 11 -7q6 -3 13 -3q17 0 26 15l255 254q9 9 9 22.5t-9.5 23zM864 -116h-704
q-13 0 -22.5 9.5t-9.5 22.5t9.5 22.5t22.5 9.5h704q13 0 22.5 -9.5t9.5 -22.5t-9.5 -22.5t-22.5 -9.5z" />
    <glyph glyph-name="uniE61F" unicode="&#xe61f;" 
d="M928 524h-99q3 37 3 67q0 29 -3 63q0 12 -9.5 20.5t-21.5 8.5h-571q-13 0 -22 -8.5t-10 -20.5q-3 -35 -3 -63q0 -30 3 -67h-99q-13 0 -22.5 -9.5t-9.5 -22.5q0 -99 53.5 -161.5t138.5 -62.5q1 0 2.5 0.5t2.5 0.5q39 -81 96 -131.5t123 -60.5v-1v-128h-128
q-13 0 -22.5 -9.5t-9.5 -22.5t9.5 -22.5t22.5 -9.5h320q13 0 22.5 9.5t9.5 22.5t-9.5 22.5t-22.5 9.5h-128v128v1q66 10 123 60.5t97 131.5l2 -1h2q85 0 138.5 62.5t53.5 161.5q0 13 -9.5 22.5t-22.5 9.5zM130 460h72q11 -67 31 -126q-41 8 -68.5 41.5t-34.5 84.5zM512 139
q-68 0 -127 61.5t-94 165.5t-35 225q0 14 1 28h510q1 -15 1 -28q0 -121 -35 -225t-94 -165.5t-127 -61.5zM791 334q20 58 31 126h72q-7 -51 -34.5 -84.5t-68.5 -41.5z" />
    <glyph glyph-name="uniE620" unicode="&#xe620;" 
d="M960 451l-104 246q-8 19 -30 19h-594q-19 0 -28 -16l-133 -243q-11 -18 3 -35l417 -525q10 -13 26 -13q15 0 25 13l414 521q12 15 4 33zM742 652l-226 -182l-208 182h434zM238 629l192 -169h-206q-13 0 -22.5 -9.5t-9.5 -22.5t9.5 -22.5t22.5 -9.5h256v-382l-343 431z
M544 3v393h256q13 0 22.5 9.5t9.5 22.5t-9.5 22.5t-22.5 9.5h-195l210 169l79 -186z" />
    <glyph glyph-name="uniE621" unicode="&#xe621;" 
d="M937 619l-227 64q-14 4 -26 -4t-14 -22q-10 -58 -54.5 -95.5t-103.5 -37.5q-35 0 -79 27q-12 7 -24.5 4t-19.5 -14.5t-4 -24t14 -19.5q60 -37 113 -37q73 0 131 42t81 110l172 -48v-225l-122 24q-15 3 -26.5 -6.5t-11.5 -24.5v-352q0 -13 -9.5 -22.5t-22.5 -9.5h-384
q-13 0 -22.5 9.5t-9.5 22.5v384q0 15 -12 24.5t-26 6.5l-122 -24v193l201 57q13 4 19 15.5t2.5 24.5t-15 19t-24.5 3l-224 -64q-10 -3 -16.5 -11.5t-6.5 -19.5v-256q0 -15 11.5 -24.5t26.5 -6.5l122 24v-345q0 -40 28 -68t68 -28h384q40 0 68 28t28 68v313l122 -24
q15 -3 26.5 6.5t11.5 24.5v288q0 11 -6.5 19.5t-16.5 11.5zM320 44q0 -13 9.5 -22.5t22.5 -9.5h320q13 0 22.5 9.5t9.5 22.5t-9.5 22.5t-22.5 9.5h-320q-13 0 -22.5 -9.5t-9.5 -22.5z" />
    <glyph glyph-name="uniE622" unicode="&#xe622;" 
d="M576 -177h-128q-53 0 -90.5 37.5t-37.5 90.5v56q0 33 -17 76.5t-39 68.5q-4 4 -9 10.5t-17.5 26t-21.5 40t-16.5 51.5t-7.5 62q0 87 43 161t116.5 116.5t160.5 42.5t160.5 -42.5t116.5 -116.5t43 -161q0 -31 -7.5 -62t-16.5 -51.5t-21.5 -40t-17.5 -26t-9 -10.5
q-22 -25 -39 -68.5t-17 -76.5v-56q0 -53 -37.5 -90.5t-90.5 -37.5zM512 598q-106 0 -181 -75t-75 -181q0 -38 15 -76t24.5 -51.5t15.5 -19.5q31 -33 52 -88t21 -100v-56q0 -26 19 -45t45 -19h128q26 0 45 19t19 45v56q0 45 21 100t52 88q7 8 16 20.5t24 50.5t15 76
q0 106 -75 181t-181 75zM640 236q-23 0 -30 22l-16 47l-59 -60q-10 -9 -23 -9t-23 9l-59 60l-16 -47q-4 -13 -16 -19t-24.5 -1.5t-18.5 16.5t-1 24l32 96q5 17 22.5 21t30.5 -8l73 -74l73 74q13 12 30.5 8t22.5 -21l32 -96q5 -12 -1 -24t-19 -16q-5 -2 -10 -2zM864 556
q-15 0 -24 10t-8.5 23.5t10.5 21.5l33 30q10 9 23 8t22 -10.5t8 -23t-10 -22.5l-33 -29q-9 -8 -21 -8zM160 556q-12 0 -21 8l-33 29q-9 9 -10 22.5t8 23t22 10.5t23 -8l33 -30q10 -8 10.5 -21.5t-8.5 -23.5t-24 -10zM512 684q-13 0 -22.5 9.5t-9.5 22.5v32q0 13 9.5 22.5
t22.5 9.5t22.5 -9.5t9.5 -22.5v-32q0 -13 -9.5 -22.5t-22.5 -9.5zM576 -52h-128q-13 0 -22.5 9.5t-9.5 22.5t9.5 22.5t22.5 9.5h128q13 0 22.5 -9.5t9.5 -22.5t-9.5 -22.5t-22.5 -9.5z" />
    <glyph glyph-name="uniE623" unicode="&#xe623;" 
d="M927 691l-1 4q-1 2 -4 6q0 1 -0.5 2.5t-1.5 1.5v1h-1q-1 1 -5 4l-5 3q-6 3 -13 3h-224q-13 0 -22.5 -9.5t-9.5 -22.5t9.5 -22.5t22.5 -9.5h139l-152 -135q-94 71 -211 71q-146 0 -249 -103t-103 -249t103 -249t249 -103t249 103t103 249q0 137 -94 238l158 139v-121
q0 -13 9.5 -22.5t22.5 -9.5t22.5 9.5t9.5 22.5v192q0 1 -1 7zM736 236q0 -119 -84.5 -203.5t-203.5 -84.5t-203.5 84.5t-84.5 203.5t84.5 203.5t203.5 84.5t203.5 -84.5t84.5 -203.5z" />
    <glyph glyph-name="uniE624" unicode="&#xe624;" 
d="M480 460q-79 0 -135.5 -56.5t-56.5 -135.5t56.5 -135.5t135.5 -56.5t135.5 56.5t56.5 135.5t-56.5 135.5t-135.5 56.5zM480 140q-53 0 -90.5 37.5t-37.5 90.5t37.5 90.5t90.5 37.5t90.5 -37.5t37.5 -90.5t-37.5 -90.5t-90.5 -37.5zM576 -20h-416q-13 0 -22.5 9.5
t-9.5 22.5v512q0 13 9.5 22.5t22.5 9.5h96q13 0 22.5 9.5t9.5 22.5t-9.5 22.5t-22.5 9.5h-96q-40 0 -68 -28t-28 -68v-512q0 -40 28 -68t68 -28h416q13 0 22.5 9.5t9.5 22.5t-9.5 22.5t-22.5 9.5zM512 556h320q13 0 22.5 -9.5t9.5 -22.5v-256q0 -13 9.5 -22.5t22.5 -9.5
t22.5 9.5t9.5 22.5v256q0 40 -28 68t-68 28h-320q-13 0 -22.5 -9.5t-9.5 -22.5t9.5 -22.5t22.5 -9.5zM784 476zM736 476q0 20 14 34t34 14t34 -14t14 -34t-14 -34t-34 -14t-34 14t-14 34zM320 652h128q13 0 22.5 9.5t9.5 22.5t-9.5 22.5t-22.5 9.5h-128q-13 0 -22.5 -9.5
t-9.5 -22.5t9.5 -22.5t22.5 -9.5zM960 44h-96v96q0 13 -9.5 22.5t-22.5 9.5t-22.5 -9.5t-9.5 -22.5v-96h-96q-13 0 -22.5 -9.5t-9.5 -22.5t9.5 -22.5t22.5 -9.5h96v-96q0 -13 9.5 -22.5t22.5 -9.5t22.5 9.5t9.5 22.5v96h96q13 0 22.5 9.5t9.5 22.5t-9.5 22.5t-22.5 9.5z" />
    <glyph glyph-name="uniE625" unicode="&#xe625;" 
d="M519 158v7q22 15 38 34.5t25 43.5t15 44t8 49.5t2.5 46.5t0.5 47v14q0 98 -56 153.5t-155 55.5h-6q-95 0 -146 -54t-51 -155q0 -30 1 -49t6.5 -56.5t15.5 -64.5t31 -57.5t50 -51.5v-6q-63 -9 -114 -27t-85 -49t-34 -68q0 -162 329 -162q82 0 144.5 10t99.5 25.5t60 37.5
t31 43t8 46q0 29 -22 55t-58 43t-70 27.5t-68 17.5zM930 44q-13 0 -22.5 9.5t-9.5 22.5q-1 12 -29.5 33.5t-76 41t-92.5 25.5q-12 1 -20 10t-8 21v67q0 15 12 25q41 32 68 94.5t27 124.5q0 39 -12 66.5t-33.5 41t-43.5 19.5t-48 6q-13 0 -22.5 9t-9.5 22.5t9.5 23t22.5 9.5
q93 0 147 -53t54 -144q0 -71 -30 -143t-77 -116v-25q49 -10 99 -32t88.5 -56.5t38.5 -69.5q0 -13 -9.5 -22.5t-22.5 -9.5z" />
    <glyph glyph-name="uniE626" unicode="&#xe626;" 
d="M843 684h-662q-48 0 -82.5 -34.5t-34.5 -82.5v-534q0 -48 34.5 -82.5t82.5 -34.5h662q48 0 82.5 34.5t34.5 82.5v534q0 48 -34.5 82.5t-82.5 34.5zM288 524q27 0 45.5 -18.5t18.5 -45.5t-18.5 -45.5t-45.5 -18.5t-45.5 18.5t-18.5 45.5t18.5 45.5t45.5 18.5zM832 76
q0 -13 -9.5 -22t-22.5 -9l-574 -1q-17 0 -26 12q-10 13 -5 29q3 9 8 22.5t21.5 44.5t35.5 54.5t50 42.5t65 19q38 -1 96 -18q68 -20 110 -14q14 3 22.5 17.5t20.5 52.5q8 26 13.5 40.5t19.5 39t30.5 38t45.5 24.5t65 11q14 0 23 -9.5t9 -22.5l2 -127v-224z" />
    <glyph glyph-name="uniE627" unicode="&#xe627;" 
d="M641 200v18q127 89 127 321q0 113 -66.5 177t-185.5 64h-8q-119 0 -185.5 -64t-66.5 -177q0 -231 128 -321v-18q-76 -10 -139 -31.5t-106 -56.5t-43 -76q0 -185 416 -185t416 185q0 41 -43 76t-106 56t-138 32z" />
    <glyph glyph-name="uniE628" unicode="&#xe628;" 
d="M961 556q0 40 -28.5 68t-67.5 28h-186h-1h-1q-6 -1 -10 -2l-1 -1h-1q-5 -3 -8 -6q-18 -17 -35 -88q-3 -12 -4 -14q-4 -17 -27 -17h-7h-8h-416q-40 0 -68 -28.5t-28 -69.5l32 -414q0 -40 28 -68t68 -28h640q40 0 68 28t28 66zM864 12q0 -13 -9.5 -22.5t-22.5 -9.5h-640
q-13 0 -22.5 10t-9.5 24l-32 414q0 13 9.5 22.5t22.5 9.5h416h8h7q35 0 58.5 17t30.5 48q2 4 4 15q8 34 13 48h168q13 0 22.5 -9.5t9.5 -22.5v-2v-1zM128 588h416q13 0 22.5 9.5t9.5 22.5t-9.5 22.5t-22.5 9.5h-416q-13 0 -22.5 -9.5t-9.5 -22.5t9.5 -22.5t22.5 -9.5z" />
    <glyph glyph-name="uniE629" unicode="&#xe629;" 
d="M506 -117q-282 0 -282 139q0 46 54 78.5t132 45.5q-46 38 -62 97.5t-16 133.5q0 84 47 131.5t130 47.5h6q83 0 129.5 -47.5t46.5 -131.5q0 -74 -15.5 -133.5t-62.5 -97.5q79 -13 133 -45.5t54 -78.5q0 -139 -294 -139zM509 492q-113 0 -113 -115q0 -68 13.5 -116.5
t52.5 -73.5q15 -9 15 -27v-42q0 -12 -8.5 -21t-20.5 -11q-45 -5 -83.5 -17.5t-57.5 -25t-19 -21.5q0 -75 218 -75q108 0 169 20t61 55q0 9 -19 21.5t-57.5 25t-83.5 17.5q-13 2 -21 11t-8 21v42q0 18 15 27q39 25 52 73.5t13 116.5q0 115 -112 115h-6zM929 47
q-13 0 -22.5 9.5t-9.5 22.5q0 23 -36.5 52t-93.5 35q-12 1 -20.5 10t-8.5 22v72q0 17 15 27q80 50 80 177q0 30 -11 52.5t-26 34t-35 18.5t-33.5 8.5t-25.5 1.5q-14 0 -23 9.5t-9 22.5t9 22.5t23 9.5q35 0 68 -9.5t62.5 -30t47 -56.5t17.5 -83q0 -150 -95 -221v-28
q70 -15 114.5 -58t44.5 -88q0 -13 -9.5 -22.5t-22.5 -9.5zM98 47q-13 0 -22.5 9.5t-9.5 22.5q0 45 44.5 88t114.5 58v28q-95 71 -95 221q0 47 17.5 83t46.5 56t62 30t69 10q13 0 22.5 -9.5t9.5 -22.5t-9.5 -22.5t-22.5 -9.5t-26 -1.5t-33 -8.5t-35 -18.5t-26 -34t-11 -52.5
q0 -127 80 -177q15 -10 15 -27v-72q0 -13 -8.5 -22t-20.5 -10q-57 -6 -93.5 -35t-36.5 -52q0 -13 -9.5 -22.5t-22.5 -9.5z" />
    <glyph glyph-name="uniE62A" unicode="&#xe62a;" 
d="M512 746q-91 0 -173.5 -35.5t-142 -95t-95 -142t-35.5 -173.5t35.5 -173.5t95 -142t142 -95t173.5 -35.5t173.5 35.5t142 95t95 142t35.5 173.5t-35.5 173.5t-95 142t-142 95t-173.5 35.5zM512 -82q-104 0 -192 51t-139 139t-51 192t51 192t139 139t192 51t192 -51
t139 -139t51 -192t-51 -192t-139 -139t-192 -51zM512 460q-66 0 -113 -47t-47 -113t47 -113t113 -47t113 47t47 113t-47 113t-113 47z" />
    <glyph glyph-name="uniE62B" unicode="&#xe62b;" 
d="M823 417l-287 289q-5 5 -11 7q-6 3 -13 3q-17 0 -26 -15l-255 -254q-9 -9 -9 -22.5t9 -23t22.5 -9.5t22.5 10l204 203v-561q0 -13 9.5 -22.5t22.5 -9.5t22.5 9.5t9.5 22.5v563l234 -235q9 -10 22.5 -10t23 9.5t9.5 22.5t-10 23zM896 108q-13 0 -22.5 -9.5t-9.5 -22.5
v-128h-704v128q0 13 -9.5 22.5t-22.5 9.5t-22.5 -9.5t-9.5 -22.5v-160q0 -13 9.5 -22.5t22.5 -9.5h768q13 0 22.5 9.5t9.5 22.5v160q0 13 -9.5 22.5t-22.5 9.5z" />
    <glyph glyph-name="uniE62C" unicode="&#xe62c;" 
d="M417 107q-9 0 -16 4q-16 10 -16 28v293q0 13 9 22.5t22.5 9.5t23 -9.5t9.5 -22.5v-238l165 94l-120 83q-11 8 -13.5 21t5 24t20.5 13t24 -5l162 -112q14 -11 13.5 -28.5t-16.5 -26.5l-256 -146q-8 -4 -16 -4zM509.5 -147q-89.5 0 -171 34t-144.5 97.5t-96.5 145
t-33.5 171.5t33.5 172t96.5 145t144.5 97t171 34t171 -34t144.5 -97q66 -67 100.5 -150t34.5 -167t-34.5 -167t-100.5 -150q-63 -63 -144.5 -97t-171 -34zM509.5 685q-76.5 0 -146 -29t-124 -83.5t-83.5 -124.5t-29 -147t29 -147t83.5 -124.5t124 -83.5t146 -29t146.5 29
t124 84q76 76 102.5 173.5t0 195.5t-102.5 174q-54 54 -124 83t-146.5 29z" />
    <glyph glyph-name="uniE62D" unicode="&#xe62d;" 
d="M908 428q-27 32 -67 32h-658q-40 0 -67 -32q-26 -31 -19 -73l69 -414q7 -38 38 -63.5t70 -25.5h476q39 0 70.5 25.5t37.5 63.5l69 415q7 41 -19 72zM318.5 200q-26.5 0 -45.5 18.5t-19 45t19 45.5t45.5 19t45 -19t18.5 -45.5t-18.5 -45t-45 -18.5zM704.5 200
q-26.5 0 -45.5 18.5t-19 45t19 45.5t45.5 19t45 -19t18.5 -45.5t-18.5 -45t-45 -18.5zM736 490q-13 0 -22.5 9.5t-9.5 22.5q0 66 -61 113t-133 47q-75 0 -132.5 -44t-57.5 -115q0 -13 -9.5 -22.5t-22.5 -9.5t-22.5 9.5t-9.5 22.5q0 67 38 119t95 78t121 26q62 0 121 -27.5
t98 -80t39 -116.5q0 -13 -9.5 -22.5t-22.5 -9.5z" />
    <glyph glyph-name="uniE62E" unicode="&#xe62e;" 
d="M512 745q-121 0 -224.5 -51.5t-163.5 -140t-60 -192.5q0 -88 45.5 -166.5t128.5 -135.5l84 -52q-6 -38 -33 -116q-7 -19 8 -34q9 -8 22 -8q7 0 13 3q144 64 188 125q119 2 220.5 53.5t160.5 139.5t59 191q0 104 -60 192.5t-163.5 140t-224.5 51.5zM580 268h-195
q-13 0 -22.5 9.5t-9.5 22.5t9.5 22.5t22.5 9.5h195q13 0 22.5 -9.5t9.5 -22.5t-9.5 -22.5t-22.5 -9.5zM641 396h-256q-13 0 -22.5 9.5t-9.5 22.5t9.5 22.5t22.5 9.5h256q13 0 22.5 -9.5t9.5 -22.5t-9.5 -22.5t-22.5 -9.5z" />
    <glyph glyph-name="uniE62F" unicode="&#xe62f;" 
d="M974 9q-10 15 -16 44t-7.5 52.5t-3.5 71.5q-5 138 -23 205q26 26 26 68q-1 46 -33 85q-42 49 -98 49q-16 0 -29 -5q8 23 5 50q-4 40 -32 73q-41 49 -98 49q-34 0 -58 -20q-13 -11 -21 -26l2 7q-81 23 -149 16q-64 -7 -116 -39q-100 -62 -159 -223q-34 -92 -69 -277
q-16 -84 -24 -115q-10 -37 -31 -91q-7 -17 -10 -25.5t-6 -19.5t-2 -18.5t5 -14.5q9 -16 39.5 -25.5t98.5 -19.5l229 -34l1 78q8 -5 15 -8q42 -23 120 -26h1q69 3 106 19l-12 -54l8 -1q60 -6 126 -6h25q66 2 120 18q71 21 91 61q21 44 -21 102zM819 569q50 0 87 -44
q29 -34 29 -75q1 -37 -22 -59l-6 -2q0 -1 1 -2v-1q-20 -16 -48 -16q-51 0 -87 43q-25 29 -29.5 64.5t13.5 60.5l8 12l13 8q18 11 41 11zM616 720q20 17 49 17q50 0 87 -44q24 -29 28.5 -64.5t-12.5 -60.5l-8 -12l-13 -8q-18 -11 -41 -11q-50 0 -87 44q-29 34 -30 74.5
t27 64.5zM530 -116q-74 3 -113 24q-73 39 -120.5 105t-54.5 138q-11 107 73 180h431q84 -73 73 -180q-7 -72 -54.5 -138t-120.5 -105q-39 -21 -114 -24zM982 -86q-17 -35 -82 -54q-52 -16 -116 -18q-66 -1 -142 5l12 50q73 40 121 108q51 69 58 144q6 55 -13 103
q-20 52 -67 92l-2 1h-441l-2 -1q-47 -40 -67 -92q-19 -48 -13 -103q7 -75 58 -144q39 -55 95 -92l-1 -70l-213 31q-61 9 -91 17.5t-37 20.5q-2 5 -2.5 10.5t2.5 15.5t5.5 17.5t8.5 22.5q21 54 31 93q9 31 25 115q35 184 68 275q58 156 154 216q102 63 252 22
q-12 -28 -5.5 -63t30.5 -64q41 -49 98 -49q15 0 29 4q-9 -23 -6 -50q5 -40 33 -73q41 -49 98 -49q29 0 52 16q16 -63 21 -195q1 -49 3 -73.5t8.5 -55t18.5 -46.5q37 -52 19 -87z" />
    <glyph glyph-name="uniE630" unicode="&#xe630;" 
d="M713 -74q-28 0 -47.5 19.5t-19.5 47.5t19.5 47.5t47.5 19.5t47.5 -19.5t19.5 -47.5t-19.5 -47.5t-47.5 -19.5zM713 46q-22 0 -37 -15.5t-15 -37.5t15 -37.5t37 -15.5t37.5 15.5t15.5 37.5t-15.5 37.5t-37.5 15.5zM387.5 -74q-27.5 0 -47 19.5t-19.5 47.5t19.5 47.5
t47 19.5t47.5 -19.5t20 -47.5t-20 -47.5t-47.5 -19.5zM387.5 46q-21.5 0 -37 -15.5t-15.5 -37.5t15.5 -37.5t37 -15.5t37 15.5t15.5 37.5t-15.5 37.5t-37 15.5zM796 73l-3 1l-450 2q-19 6 -36 23.5t-29 39.5t-23 58.5t-18 64t-14.5 74t-11 71.5t-9.5 72l-4 33l-21 123
l-111 -1v14l123 2l20 -113h682q48 -9 62 -55q14 -49 -10.5 -135t-66 -160.5t-78.5 -110.5zM346 90l444 -2q35 36 74.5 108t63.5 154t11 128q-12 37 -49 44h-679l6 -41q5 -38 7.5 -58.5t8.5 -59.5t11 -63.5t13 -58t17 -55.5t19.5 -44t24 -34.5t28.5 -17.5z" />
    <glyph glyph-name="uniE631" unicode="&#xe631;" 
d="M458 -156q-8 0 -17 3q-19 5 -27 13t-14 20q-3 7 -5 10q-15 -22 -46 -22q-19 0 -36.5 11t-25.5 32q-1 -1 -4 -3q-20 -19 -46 -19q-34 0 -47 18.5t-14 51.5q-15 -5 -28 -5q-28 0 -44 18.5t-16 32.5q0 35 8 47.5t28 20.5q18 8 29 17l122 131q11 18 20 44q15 41 0 166
q-4 31 -5 43l-114 -70l-5 5q-14 14 -40 39q-40 37 -61 62l-4 5l3 5q8 12 26 30q15 15 22 24v1l121 133q4 4 8 10q8 12 20 14h1h84q13 0 19.5 -8.5t8 -17t2.5 -23.5q1 -19 3 -29t9 -23.5t23.5 -20t42.5 -6.5h36q25 -1 37 -1q41 0 68 7.5t37 31.5q6 12 7 41q0 11 1 17.5
t3.5 15t9 12.5t16.5 4h72q17 -2 28 -11.5t33 -38.5l4 -4q14 -19 60 -70q65 -72 83 -100l4 -6l-108 -104l-6 3q-14 7 -46 29q-48 33 -69 41q-1 -16 -3 -54q-10 -132 7 -174l83 -96q5 -5 23 -26q33 -36 37 -38q6 -4 19 -9q14 -6 21 -10.5t14 -18t7 -33.5q0 -28 -18.5 -43
t-51.5 -15q-9 0 -18 1q-3 -32 -22.5 -49.5t-43.5 -17.5q-30 0 -45 22q-2 -3 -7 -10q-6 -9 -10.5 -14.5t-13.5 -11t-20 -5.5q-29 0 -37.5 2t-15.5 11l-8 8q-6 -21 -21.5 -33t-38.5 -12q-14 0 -25 4.5t-15.5 8.5t-10.5 12q-4 5 -6 7q-16 -33 -51 -33zM387 -82l10 -7
q11 -8 18 -24q4 -6 6 -9.5t8 -7.5t17 -7q6 -2 12 -2q14 0 25 9t15 23l3 12l10 -7q7 -5 16 -17q6 -7 9.5 -10t11.5 -6t18 -3q20 0 32 11.5t14 31.5l1 14l12 -8q12 -8 21 -18q4 -5 10 -6t31 -1q9 0 15.5 5.5t14.5 18.5q11 16 19 21l10 8l3 -12q6 -22 34 -22q20 0 34.5 15.5
t15.5 44.5v8h9h1q11 -2 24 -2q53 0 53 41q0 16 -4 25t-9.5 12.5t-18.5 8.5q-13 6 -21 10q-5 4 -40 42q-19 21 -23 25l-1 1l-84 98v2q-13 30 -14 84t4 98q3 46 3 64v10l11 -2q26 -6 85 -46q27 -19 39 -26l90 87q-19 25 -79 92q-45 51 -61 70l-3 5q-21 27 -29 34.5t-21 8.5
h-70q-8 0 -10.5 -6t-3.5 -26q-1 -33 -8 -48q-13 -29 -44 -39t-76 -10q-13 0 -38 1q-24 1 -35 1q-26 0 -44 6.5t-27.5 15t-15 23.5t-6.5 24t-2 25q-1 20 -3.5 26.5t-9.5 6.5h-84q-3 0 -7 -6q-5 -7 -9 -12l-121 -133q-8 -10 -23 -26q-14 -14 -20 -22q19 -22 55 -56
q24 -22 36 -35l128 78v-14q0 -14 6 -56q15 -129 -1 -174q-11 -30 -22 -48h-1v-1l-124 -133q-13 -10 -33 -19q-11 -5 -15.5 -8.5t-7.5 -14t-3 -30.5q0 -3 3.5 -10.5t14 -15.5t25.5 -8t32 8l12 6v-13q0 -38 10 -52t35 -14q19 0 35 14q9 8 14 12l10 6l3 -11q5 -22 19.5 -32
t30.5 -10q29 0 35 22z" />
    <glyph glyph-name="uniE632" unicode="&#xe632;" 
d="M685 193q59 41 92.5 105t33.5 138q0 124 -87.5 212t-211.5 88t-211.5 -88t-87.5 -212q0 -74 33.5 -138t91.5 -105q-96 -49 -152.5 -141t-56.5 -201v-11l18 1q-1 6 -1 10q0 106 57 195.5t152 135.5q72 -45 157 -45t157 45q95 -46 152 -135.5t56 -195.5v-10l18 -1v11
q0 108 -57 200.5t-153 141.5zM361 198l-2 5q0 -1 -1 -1t-1 -1q-59 39 -93 101t-34 134q0 117 82.5 199.5t199.5 82.5t199.5 -82.5t82.5 -199t-82.5 -199t-199.5 -82.5q-82 0 -151 43z" />
    <glyph glyph-name="uniE633" unicode="&#xe633;" 
d="M958 334v283q0 34 -24.5 59t-59.5 25h-724q-35 0 -59.5 -25t-24.5 -59v-520q0 -35 24.5 -59.5t59.5 -24.5h306l64 -138l78 138h276q35 0 59.5 24.5t24.5 59.5v117h-16v-117q0 -28 -20 -48t-48 -20h-285l-68 -119l-55 119h-316q-28 0 -48 20t-20 48v520q0 28 20 48t48 20
h724q28 0 48 -20t20 -48v-283h16zM283 345.5q0 -28.5 20 -48.5t48.5 -20t48.5 20t20 48.5t-20 48.5t-48.5 20t-48.5 -20t-20 -48.5zM452 345.5q0 -28.5 20 -48.5t48.5 -20t48.5 20t20 48.5t-20 48.5t-48.5 20t-48.5 -20t-20 -48.5zM618 345.5q0 -28.5 20 -48.5t48.5 -20
t48.5 20t20 48.5t-20 48.5t-48.5 20t-48.5 -20t-20 -48.5z" />
    <glyph glyph-name="uniE634" unicode="&#xe634;" 
d="M508 23l6 -4l5 4q134 92 208 241q74 152 42 274q-20 75 -81 121q-66 50 -174 59h-1q-108 -9 -174 -59q-61 -46 -81 -121q-32 -122 42 -274q74 -149 208 -241zM277 533q19 72 79.5 114.5t157.5 50.5q97 -8 157 -50.5t79 -114.5q30 -115 -41 -260q-70 -141 -195 -230
q-126 89 -196 230q-71 145 -41 260zM512 -142l70 100h380l-179 179h-92l-16 -20h100l139 -139h-342l-60 -85l-60 85h-342l139 139h103q-8 10 -15 20h-96l-179 -179h380zM513.5 312q47.5 0 81 33.5t33.5 80.5t-33.5 80.5t-81 33.5t-81 -33.5t-33.5 -80.5t33.5 -80.5t81 -33.5
zM514 520q39 0 66.5 -27.5t27.5 -66.5t-27.5 -66.5t-66.5 -27.5t-67 27.5t-28 66.5t28 66.5t67 27.5z" />
    <glyph glyph-name="uniE635" unicode="&#xe635;" 
d="M512 746q-91 0 -173.5 -35.5t-142 -95t-95 -142t-35.5 -173.5t35.5 -173.5t95 -142t142 -95t173.5 -35.5t173.5 35.5t142 95t95 142t35.5 173.5t-35.5 173.5t-95 142t-142 95t-173.5 35.5zM656 430l-252 -327h-159v325h-64v61h209v-61v-230l229 299h1h226v-67h-190z" />
    <glyph glyph-name="uniE636" unicode="&#xe636;" 
d="M636 214q45 33 71.5 83t26.5 108q0 96 -68.5 164.5t-165 68.5t-165 -68.5t-68.5 -164.5q0 -58 26 -108t72 -83q-93 -47 -136 -141l12 -6q43 94 137 139q56 -35 122 -35t123 35q74 -36 118 -106t44 -152v-8l14 -1v9q0 89 -49 164q-43 66 -114 102zM280 405
q0 91 64.5 155.5t155.5 64.5t155.5 -64.5t64.5 -155.5t-64.5 -155.5t-155.5 -64.5t-155.5 64.5t-64.5 155.5zM921 153q-25 44 -65 68q-35 22 -74 26q91 72 83 143q-2 22 -14.5 44t-27 36t-33 26.5t-26.5 16.5t-13 7q-5 2 -7 -3t3 -7q4 -2 11 -6t24.5 -16t31.5 -25t26 -33.5
t15 -41.5q7 -69 -91 -142q-5 -3 -1 -7q1 -2 4 -2v0q41 1 83 -25q86 -53 98 -197l11 1q-7 82 -38 137zM163 97h-36v-62h-62v-35h62v-62h36v62h61v35h-61v62z" />
    <glyph glyph-name="uniE637" unicode="&#xe637;" 
d="M954 473q-16 92 -85 145q-70 53 -164 44q-98 -9 -194 -86q-81 65 -165 82q-81 16 -150 -15q-60 -28 -95 -86q-36 -59 -36 -133q0 -129 101 -256q117 -147 346 -256v2l1 -1q67 31 124 67l-7 12q-55 -34 -118 -64q-222 106 -335 248q-98 124 -98 248q0 70 33 124.5t90 81.5
q68 32 149 13t159 -85l1 1l1 -1q52 44 104.5 67t97 24.5t81 -9.5t65.5 -34q39 -30 62 -77.5t22 -115t-34 -138.5q-13 -27 -31 -54l12 -8q18 28 32 56q49 106 31 204zM782 269h-33v-140h-140v-33h140v-140h33v140h140v33h-140v140z" />
    <glyph glyph-name="uniE638" unicode="&#xe638;" 
d="M951 483q-17 80 -77 128q-60 50 -141 50q-111 0 -221 -91q-110 91 -221 91q-81 0 -141 -50q-60 -48 -77 -128q-15 -65 2.5 -136.5t64.5 -141.5q53 -79 141 -149q96 -77 229 -140l2 -1l2 1q133 63 229 140q88 70 141 149q47 70 64.5 141.5t2.5 136.5z" />
    <glyph glyph-name="uniE639" unicode="&#xe639;" 
d="M953 484q-18 80 -78 129t-142 49q-111 0 -221 -90q-110 90 -221 90q-82 0 -142 -49t-78 -130q-14 -65 3 -137t65 -141q53 -79 141 -150q96 -77 229 -140l3 -1l3 1q133 63 229 140q88 71 141 150q48 69 65 141t3 138zM874 212q-111 -163 -362 -283q-251 120 -362 283
q-94 140 -65 268q17 77 73.5 122.5t132.5 45.5q109 0 217 -90l4 -4l5 4q108 90 216 90q77 0 133 -45.5t73 -122.5q29 -128 -65 -268z" />
    <glyph glyph-name="uniE63A" unicode="&#xe63a;" 
d="M174 619h665q17 0 28.5 11.5t11.5 28t-11.5 28t-28.5 11.5h-665q-16 0 -27.5 -11.5t-11.5 -28t11.5 -28t27.5 -11.5zM155 678q8 8 19 8h665q12 0 20 -8t8 -19.5t-8 -19.5t-20 -8h-665q-11 0 -19 8t-8 19.5t8 19.5zM958 398v1l-1 1l-74 191l-1 3h-740l-1 -3l-75 -192v-1
q-6 -40 8 -75q13 -35 44 -57l1 -1h104l1 1q22 7 42 25q13 12 22 27q8 -17 18 -29q15 -17 33 -23l1 -1h110l1 1q24 11 42 31q12 14 19 31q7 -17 19 -31q17 -20 42 -31l1 -1h110l1 1q18 6 33 23q10 12 18 29q9 -15 22 -27q20 -18 42 -25l1 -1h104l1 1q31 22 44 57q14 35 8 75z
M939 328q-12 -31 -38 -51h-99q-19 7 -36 22.5t-26 35.5l-6 13l-5 -14q-7 -22 -20 -38q-12 -14 -27 -19h-105q-22 10 -37 28q-16 18 -22 42l-6 21l-6 -21q-6 -24 -22 -42q-15 -18 -37 -28h-105q-15 5 -27 19q-13 16 -20 38l-5 14l-6 -13q-9 -20 -26 -35.5t-36 -22.5h-99
q-26 20 -38 51q-13 31 -7 68l72 187h724l72 -187q6 -37 -7 -68zM919 -68q0 -17 -11 -30q-11 -12 -25 -12h-732q-15 0 -25 12q-11 12 -11 30v291h-12v-291q0 -22 14 -38t34 -16h732q20 0 34 16q13 16 13 38v291h-11v-291zM271 141h-87q-3 0 0 -4h193v4h-86q-2 0 -2.5 1.5
t0.5 2.5q13 10 7 20q-8 11 -35 11q-3 0 -2 -3q7 -12 14 -29q1 -3 -2 -3zM753 -41q15 -1 25 6q1 1 1 2v35q0 3 2 2q11 -2 16 -8t5.5 -11t1.5 -5q2 -2 16 2q17 5 17 23v52q0 2 -2 1q-1 0 -7 -1.5t-11.5 -2.5t-6.5 -1h-29q-2 0 -2 2v11q0 1 3 3t5 5q1 2 -2 2l-32 5q-2 1 -2 -2
v-24q0 -2 -2 -2h-29q-12 5 -23 7q-2 0 -2 -2v-78q0 -2 2 -2q13 0 23 5q1 0 1 1v63q0 2 2 2h26q2 0 2 -2v-86q0 -2 2 -2zM779 47q0 2 2 2h28q2 0 2 -2v-33q0 -5 -2.5 -7.5t-7.5 -2.5l-20 1q-2 0 -2 2v40zM662 60q6 -5 13.5 -4.5t12.5 10t3 23.5q0 2 2 2h143q2 0 1 -2l-6 -23
q-1 -1 0 -1.5t2 -0.5l32 19h2q2 0 4 1t4 3q1 1 0 2l-29 21q-2 1 -3 -1l-3 -13q-1 -1 -2 -1h-146q-1 0 -4 8q-1 5 -3 5l-5 -10q-7 -12 -22 -26q-3 -2 4 -12zM225 132q-1 0 -1.5 -1t-0.5 -2q9 -17 23 -53q0 -1 2 -1q23 10 22 25q-2 20 -45 32zM735 168q0 2 -2 3l-28 5
q-1 0 -2 -0.5t-1 -1.5v-31q0 -2 -1 -2h-37q-2 0 -1.5 -2t1.5 -2h37q1 0 1 -2v-30q0 -3 9 -2t16 6v1v25q0 2 2 2h19q2 0 2 -2v-28q0 -2 2 -2q14 0 23 6q1 1 1 2v22q0 2 2 2h18q2 0 2 -2v-28q0 -3 8 -2q10 2 16 6q1 1 1 2v22q0 2 2 2h45q2 0 2 2t-2 2h-45q-2 0 -2 2v18
q0 1 3 3t4 5q1 2 -1 2l-29 5q-2 0 -2 -2v-31q0 -2 -2 -2h-18q-2 0 -2 2v18q0 1 3 3t4 5q1 2 -1 2l-30 5q-1 0 -1.5 -0.5t-0.5 -1.5v-31q0 -2 -2 -2h-19q-2 0 -2 2v18q0 1 3 2.5t5 4.5zM567 3q32 45 50 107q0 2 3.5 2t5.5 2q5 4 1 6l-38 15q-2 2 -2 -1q-1 -24 -8.5 -64.5
t-14.5 -65.5q0 -1 1.5 -2t1.5 1zM174 -41q28 18 38.5 33.5t12.5 45.5q1 12 0 30q0 2 2 2h152q1 1 1 2t-2 1h-70q-2 0 -2.5 1.5t0.5 2.5q19 13 34 34q0 1 5 0.5t7 4.5q1 2 0 2l-36 15q-2 0 -2 -1l-21 -58q0 -1 -1 -1h-66l-4 2q-3 2 -9.5 4t-13.5 3q-2 0 -2 -2q1 -47 -3 -67
q-3 -24 -22 -51q-1 -1 0 -2.5t2 -0.5zM418 -25h207q2 1 0 4h-63q-2 0 -2 2v179q0 1 3 3t4 5q0 2 -1 3l-30 4q-2 0 -2 -1v-193q0 -2 -2 -2h-21q-1 0 -1 2v179q0 1 3 3t4 5q0 2 -2 3l-30 4q-2 0 -2 -1v-193q0 -2 -2 -2h-63q-2 -1 0 -4zM447 11q13 1 21 10t9 22v1q-7 35 -45 84
q-1 1 -2.5 0.5t-1.5 -1.5q18 -64 17 -114q0 -2 2 -2z" />
    <glyph glyph-name="uniE63B" unicode="&#xe63b;" 
d="M943 -1l-237 209q-7 6 -15 10q57 86 57 190q0 93 -46 172t-125 124.5t-172 45.5t-171.5 -45.5t-124.5 -124.5t-46 -172t46 -172t124.5 -125t171.5 -46q103 0 189 57q3 -8 9 -15l207 -239q16 -18 42 -18q23 0 40 16l52 50q18 18 17 44q0 23 -18 39zM109 407.5
q0 122.5 87 209.5t209.5 87t209 -87t86.5 -209.5t-86.5 -209t-209 -86.5t-209.5 86.5t-87 209zM638 154l20 20q3 3 7 3q5 0 10 -4l41 -36l-42 -41l-36 42q-8 9 0 16zM911 -50l-51 -50q-4 -4 -8 -4t-7 3l-140 162l46 45l162 -142q2 -2 2 -6q0 -5 -4 -8zM636.5 369
q-9.5 2 -17.5 -3.5t-10 -14.5q-8 -35 -27.5 -63.5t-44 -45.5t-43.5 -26t-38 -14q-9 -3 -14 -11.5t-2 -17.5q5 -17 22 -17q4 0 7 1q65 19 112 61q57 50 73 123q2 9 -3 17.5t-14.5 10.5z" />
    <glyph glyph-name="uniE63C" unicode="&#xe63c;" 
d="M482 238q3 -3 19 -16.5t38 -32t33 -27.5l105 103l-51 54q-6 4 -15 13t-14 13q-9 -6 -56 -55t-59 -52zM461 289q0 -9 1 -15.5t4.5 -13.5t5.5 -10.5t10 -11.5t11.5 -11t16 -13.5t18.5 -15.5q14 -11 16 -13q6 -5 16 -13.5t15 -13.5q6 -6 15.5 -13.5t14.5 -12.5l32 -28
q3 -3 8 -6t8 -7l219 -189q8 -7 23.5 -21.5t23.5 -21t21.5 -12.5t27.5 -6q20 0 39.5 21t19.5 41q0 11 -5.5 21.5t-11 17t-16.5 16.5t-14 13l-90 86q-21 18 -90 90t-86 86q-18 15 -31 28q-4 3 -19 19t-28 29.5t-29 28t-29.5 23.5t-20.5 9q-17 0 -28 -4t-15.5 -8t-18.5 -19
q-2 -1 -8.5 -7t-9.5 -9.5t-7.5 -9.5t-6.5 -12t-2 -12zM834 656q-49 -2 -69 -33q4 -18 21.5 -32.5t33.5 -18.5q0 -5 -0.5 -19t-0.5 -21.5t1.5 -17t6 -15t12.5 -7.5q9 -1 20.5 5t24.5 17.5t16 12.5l10 -3q10 -4 21 -7t22.5 -4.5t19.5 2t8 12.5q0 30 -7.5 44t-7.5 19q0 6 14 21
t19 27q3 8 3.5 14t-3.5 10t-8.5 6.5t-12 3.5t-13.5 1.5t-14 0t-13 -1t-10 -1.5t-6 -1q-4 14 -21.5 34.5t-29.5 20.5q-21 0 -37 -69zM98 -41q-49 -1 -69 -33q4 -18 21.5 -32.5t33.5 -18.5q0 -5 -1 -18.5t-0.5 -21t2 -17.5t6 -15.5t12.5 -6.5q9 -2 20 4t24.5 17.5t16.5 13.5
l10 -3q9 -4 20.5 -7t23 -5t19.5 1.5t8 13.5q0 29 -7.5 43t-7.5 19q0 6 14 21t19 28q3 8 3.5 14t-3.5 10t-8.5 6.5t-12 3.5t-14 1t-14 -0.5t-12.5 -0.5l-10 -2h-6q-4 14 -21.5 34.5t-29.5 20.5q-22 0 -37 -70zM314 689q-9 2 -28 10t-38 15t-41 14.5t-41 9t-35 -3t-25 -20.5
t-9 -43q0 -29 15.5 -72.5t32.5 -74.5l-43 -49q-30 -34 -44 -62.5t-12 -47t14 -32.5t35 -19.5t51 -7t62 4.5q41 4 47 4q6 -25 51.5 -84t76.5 -59q10 0 18.5 3t13.5 5.5t10.5 12t7.5 14t7.5 19.5t7.5 20q1 4 9 22.5t13.5 31.5t10 29.5t4.5 26.5q33 0 104.5 28.5t83.5 61.5
q0 16 -12.5 33.5t-20.5 24.5l-26 23q-14 11 -44.5 30t-42.5 22q0 20 3.5 55t3.5 36q0 6 -0.5 10.5t-1.5 10t-2 9.5q-3 41 -15 62.5t-32 23t-42.5 -7t-52.5 -28.5q-17 -12 -37 -29z" />
    <glyph glyph-name="uniE63D" unicode="&#xe63d;" 
d="M512 628q-89 0 -165 -44t-119.5 -120t-43.5 -165t43.5 -164.5t119.5 -119.5t165 -44t165 44t119.5 119.5t43.5 164.5t-43.5 165t-119.5 120t-165 44zM512 14q-118 0 -201.5 83.5t-83.5 201.5t83.5 201.5t201.5 83.5t201.5 -83.5t83.5 -201.5t-83.5 -201.5t-201.5 -83.5z
M654 277h-142v143q0 4 -3 7t-8 3h-22q-4 0 -7.5 -3t-3.5 -7v-154v-22q0 -4 3.5 -7.5t7.5 -3.5h175q5 0 8 3.5t3 7.5v22q0 5 -3 8t-8 3z" />
    <glyph glyph-name="uniE63E" unicode="&#xe63e;" 
d="M732 -123q-16 0 -24 13q-6 10 -3.5 21.5t12.5 17.5q88 55 137.5 145.5t49.5 195.5q0 108 -52.5 200t-143 145.5t-197 53.5t-196.5 -53.5t-143 -145.5t-53 -200q0 -104 49 -194t135 -145q10 -6 12.5 -17.5t-3.5 -21.5t-17.5 -13t-20.5 4q-99 63 -155 165.5t-56 221.5
q0 92 35.5 176.5t96 146t143.5 97.5t174 36t174 -36t143 -97.5t95.5 -146t35.5 -176.5q0 -120 -56.5 -223t-156.5 -166q-7 -4 -15 -4zM923 241h-51q-12 0 -20 8t-8 20t8 20.5t20 8.5h51q12 0 20 -8.5t8 -20.5t-8 -20t-20 -8zM152 242h-52q-11 0 -19.5 8t-8.5 20t8.5 20.5
t19.5 8.5h52q11 0 19.5 -8.5t8.5 -20.5t-8.5 -20t-19.5 -8zM511 604q-12 0 -20 8t-8 20v52q0 12 8 20.5t20 8.5t20 -8.5t8 -20.5v-52q0 -12 -8 -20t-20 -8zM333 559q-16 0 -24 14l-26 46q-6 10 -2.5 21.5t13.5 17t21 2.5t17 -13l26 -45q5 -10 2 -21.5t-13 -17.5
q-6 -4 -14 -4zM868 34q-7 0 -14 3l-44 26q-10 6 -13 17.5t2.5 22t17 13.5t21.5 -3l44 -26q10 -6 13 -17.5t-3 -21.5q-8 -14 -24 -14zM202 425q-8 0 -14 4l-45 26q-10 6 -13 17.5t3 21.5t17 13.5t21 -2.5l45 -26q10 -6 13 -17.5t-3 -22.5q-8 -14 -24 -14zM157 34
q-16 0 -24 14q-6 10 -3 21.5t13 17.5l45 26q10 6 21 3t17 -13.5t3 -22t-13 -17.5l-45 -26q-6 -3 -14 -3zM824 425q-16 0 -25 14q-5 11 -2 22.5t13 17.5l44 26q10 6 21.5 2.5t17 -13.5t2.5 -21.5t-13 -17.5l-44 -26q-7 -4 -14 -4zM692 559q-7 0 -14 4q-10 6 -13 17.5t3 21.5
l26 45q5 10 16.5 13t21.5 -2.5t13 -17t-3 -21.5l-25 -46q-9 -14 -25 -14zM455 269.5q0 -23.5 16.5 -40.5t39.5 -17t39.5 17t16.5 40.5t-16.5 40t-39.5 16.5t-39.5 -16.5t-16.5 -40zM729 397.5q6 -10.5 3 -21.5t-13 -17l-195 -115q-10 -5 -21 -2t-17 13t-3 21.5t13 17.5
l195 114q10 6 21 3t17 -13.5z" />
    <glyph glyph-name="uniE63F" unicode="&#xe63f;" 
d="M909 747h-794h-42v-42v-810v-42h42h794h42v42v810v42h-42zM866 -62h-708v724h708v-724zM374 39l-69 49h418l-69 -49h93l93 60l-93 61h-93l69 -49h-418l69 49h-93l-93 -61l93 -60h93zM532.5 244.5q7.5 -3.5 15.5 -6.5q11 -3 22 -5t23 -2q22 0 40.5 6.5t33.5 20.5t22.5 32
t7.5 40q0 14 -4 27t-12 24q-7 10 -16.5 17t-20.5 12q-13 4 -26 6t-26 2h-19h-1h-6l13 80h110h5v4v18v5h-5h-131h-4v-4l-19 -128l-1 -6l6 1l20 3h25q21 0 37 -5q16 -4 28 -14q8 -8 13 -20q4 -12 5 -27q0 -14 -5 -25.5t-15 -22.5q-11 -9 -24 -14t-29 -5q-10 0 -19 1.5t-18 3.5
q-8 3 -14.5 6t-11.5 7l-4 3l-3 -5l-8 -16l-2 -4l3 -2q7 -4 14.5 -7.5zM336 472l2 -5l4 2l41 25v-253v-5h4h21h4v5v279v5h-4h-21h-1l-1 -1l-52 -30l-3 -2l1 -3z" />
    <glyph glyph-name="uniE640" unicode="&#xe640;" 
d="M909 747h-794h-42v-42v-810v-42h42h794h42v42v810v42h-42zM559 -62v2v67v12h-11h-76h-12v-12v-67v-2h-302v312h59h12v12v76v11h-12h-59v313h302v-3v-67v-11h12h76h11v11v67v3h307v-313h-64h-11v-11v-76v-12h11h64v-312h-307zM694 320q10 5 18 11q11 8 18 19q6 8 8.5 17.5
t2.5 20.5q0 15 -6 28t-17 24q-13 10 -28.5 15t-33.5 5q-20 0 -36.5 -5.5t-28.5 -16.5q-14 -10 -20.5 -24t-6.5 -31q0 -11 3 -20.5t9 -17.5q7 -10 17 -17q7 -5 16 -9q-26 -12 -40 -30q-17 -20 -17 -48q0 -18 8 -33q7 -14 22 -26q15 -11 32.5 -16t37.5 -5t37.5 5.5t31.5 17.5
q16 11 24 27t8 35q0 28 -17 47q-15 17 -42 27zM703 204q-19 -18 -51 -18h-1q-16 0 -29 5t-22 14v1q-10 7 -14 17.5t-3 22.5q0 24 15 39t46 23q20 -4 34.5 -10t23.5 -13q10 -8 15 -18.5t5 -23.5q0 -12 -4.5 -21.5t-14.5 -17.5zM628 431q12 3 26.5 3t25 -4t18.5 -11
q6 -7 9 -15t3 -18q0 -11 -3 -20t-10 -15v-1q-8 -7 -17.5 -12t-22.5 -8q-32 7 -49 21q-15 14 -15 35q0 10 3.5 18.5t11.5 15.5t20 11zM459 274v176v5h-4h-15h-2l-1 -2l-152 -184l-1 -1v-2v-13v-4h4h142v-79v-4h5h20h4v4v79h43h5v4v17v4h-5h-43zM321 274l97 118q3 4 5 6
q2 3 5 5v1l3 4l-1 -1v-1v-132h-109z" />
    <glyph glyph-name="uniE641" unicode="&#xe641;" 
d="M909 747h-794h-42v-42v-810v-42h42h794h42v42v810v42h-42zM866 -62h-708v724h708v-724zM259 82h3l1 3q15 40 28.5 80t27.5 81l27 81q10 28 20 57v-344v-5h4h31h5v5v340l92 -223l1 -3h3h30l-36 -92l-3 -6h7h31h3l1 3q18 48 37 97q19 48 39 99q16 42 40 100q16 41 38 94h39
q0 -39 1 -86q0 -46 2 -104q1 -57 1.5 -103.5t0.5 -85.5h-89h-8l5 -7l21 -26l1 -2h2h104h4v5v44q-1 24 -1 51q-1 28 -1.5 55t-0.5 55q0 55 -1 110q-1 52 -1 94h52h5v4v23v5h-5h-52v99v4h-5h-31h-4v-4v-99h-187h-4v-5v-23v-4h4h108l-113 -285l-100 239l-1 3h-3h-26v43h112h4v4
v23v5h-4h-112v94v4h-5h-31h-4v-4v-94h-133h-4v-5v-23v-4h4h113l-122 -362l-2 -5h6h31z" />
    <glyph glyph-name="uniE642" unicode="&#xe642;" 
d="M924 475q-34 80 -96 142t-142 96q-83 35 -174 35t-175 -35q-80 -34 -142 -96t-96 -142q-35 -84 -35 -175t35 -174q34 -81 96 -143t142 -96q84 -35 175 -35t174 35q80 35 142 96.5t96 142.5q36 83 36 174t-36 175zM786 56l-48 48l-30 -30l48 -48q-96 -85 -223 -92v68h-43
v-68q-127 7 -222 92l48 48l-31 30l-47 -48q-86 96 -93 223h68v43h-68q7 127 93 222l47 -48l31 30l-48 48q104 93 243.5 93t244.5 -93l-48 -48l30 -30l48 48q85 -95 92 -222h-68v-43h68q-7 -127 -92 -223zM511.5 610q-16.5 0 -28.5 -12t-12 -29v-273q0 -17 12 -29t28.5 -12
t28.5 12t12 29v273q0 17 -12 29t-28.5 12z" />
    <glyph glyph-name="uniE643" unicode="&#xe643;" 
d="M832 704h-640q-40 0 -68 -28t-28 -68v-640q0 -40 28 -68t68 -28h640q40 0 68 28t28 68v640q0 40 -28 68t-68 28zM727 362l-256 -259v-1q-2 -1 -7 -4q-1 -1 -2 -1.5t-2 -1.5q-6 -2 -12 -2t-12 2q-1 1 -2 1.5t-1 1.5q-6 3 -7 4v1h-1l-126 129q-9 10 -9 23t9.5 22.5t23 9
t22.5 -9.5l103 -106l234 236q9 9 22.5 9t22.5 -9.5t9.5 -22.5t-9.5 -22z" />
    <glyph glyph-name="uniE644" unicode="&#xe644;" 
d="M879 259q-10 49 -29 91t-41 70t-48.5 51.5t-48 36.5t-44 22.5t-31 12.5t-14.5 4q-15 3 -21.5 -10t4.5 -23q73 -67 51 -143q-39 28 -69 62t-47.5 65t-29.5 65.5t-16.5 59t-6 49.5t-1 34.5t0.5 15.5q2 12 -8.5 18t-20.5 0q-34 -22 -60 -49.5t-40 -54t-23 -55t-11.5 -50
t-2.5 -42.5t1 -28.5t1 -11.5q1 -1 1 -2q42 -122 38 -224l-70 -4q-11 6 -16 17q-7 21 4.5 56.5t24.5 58.5q7 12 -2 22.5t-22 5.5q-45 -19 -77.5 -51t-46.5 -61.5t-20.5 -62t-7 -46.5t0.5 -19q2 -61 12.5 -110t24 -81t32.5 -56t36 -36.5t36 -20t31.5 -9.5t24 -2t18.5 1
q50 15 87.5 45.5t58.5 65t34 78t17.5 75.5t4.5 65q28 -36 36 -79t2 -76.5t-20.5 -68t-23 -47.5t-14.5 -21t-2.5 -18t13.5 -12q34 -7 66.5 -7t62.5 7t49 16.5t35.5 21t22 17t7.5 8.5q35 38 57.5 89.5t30.5 93.5t10.5 87.5t1 64t-2.5 29.5zM753 -80l-6 -6q-4 -4 -17.5 -14
t-29.5 -17.5t-41.5 -13.5t-52.5 -6q-15 0 -31 2q14 23 25 48.5t20 66.5t6.5 78t-24 80.5t-62.5 78.5q-10 8 -21.5 2t-9.5 -19q0 -6 0.5 -17t0 -40.5t-5 -58.5t-16 -65t-29.5 -65t-49.5 -54.5t-72.5 -36.5q-2 -1 -6.5 -1t-15 1t-21 4.5t-25 12t-27 21.5t-25.5 34.5t-22.5 49
t-16.5 68t-9 88.5q1 3 0 14t3.5 31.5t11 41.5t23.5 45.5t41 42.5q-20 -57 -7 -93q11 -30 42 -41q3 -1 7 -1l92 4q16 1 18 17q1 13 2 35.5t-8 88t-32 132.5q-2 12 -2 30.5t4.5 54t26 74t58.5 68.5q1 -27 5 -55.5t17.5 -70.5t35 -80t60 -79.5t88.5 -74.5q7 -4 15 -2t12 9
q2 2 4.5 8t7 22t6 33t-3.5 41t-17 47q130 -73 162 -230q1 -8 2 -24.5t-1 -58t-9.5 -81t-27.5 -87t-52 -82.5z" />
    <glyph glyph-name="uniE645" unicode="&#xe645;" 
d="M811 684h-598q-35 0 -60 -25t-25 -60v-598q0 -35 25 -60t60 -25h598q35 0 60 25t25 60v598q0 35 -25 60t-60 25zM427 87l-214 213l60 60l154 -154l324 324l60 -59z" />
    <glyph glyph-name="uniE646" unicode="&#xe646;" 
d="M571 435h-58l-50 -29l-29 -50v-58l29 -50l50 -29h58l50 29l29 50v58l-29 50zM603 311l-16 -29l-28 -16h-33l-28 16l-16 29v32l16 28l28 17h33l28 -17l16 -28v-32zM602 550h-120l-103 -60l-60 -103v-120l60 -104l103 -60h120l104 60l60 104v120l-60 103zM719 280l-47 -82
l-82 -48h-95l-82 48l-47 82v94l47 82l82 47h95l82 -47l47 -82v-94zM822 634h-91q-20 26 -32 41q-10 12 -15 19q-3 4 -5 6q-11 14 -27 14h-236q-15 0 -27 -14q-2 -2 -5 -6q-5 -6 -15 -19q-13 -16 -32 -41h-188q-44 0 -74.5 -30.5t-30.5 -73.5v-416q0 -43 30.5 -73.5
t74.5 -30.5h673q43 0 74 30.5t31 73.5v416q0 43 -31 73.5t-74 30.5zM880 114q0 -23 -17 -40t-41 -17h-673q-24 0 -41 17t-17 40v416q0 24 17 40.5t41 16.5h211l7 9q24 31 39 50q10 12 15 19l2 2h222l2 -2q5 -7 15 -19q14 -18 39 -50l7 -9h114q24 0 41 -16.5t17 -40.5v-416z
M224 526zM199 525.5q0 10.5 7.5 18t18 7.5t17.5 -7.5t7 -18t-7 -17.5t-17.5 -7t-18 7t-7.5 17.5z" />
    <glyph glyph-name="uniE647" unicode="&#xe647;" 
d="M891 330l-357 356q-8 8 -19 8t-19 -8q-3 -3 -5 -7l-351 -351q-8 -8 -8 -19.5t8 -19.5t19 -8t19 8l310 309v-671q0 -11 8 -19t19.5 -8t19.5 8t8 19v673l309 -309q8 -8 19.5 -8t19.5 8t8 19t-8 20z" />
    <glyph glyph-name="uniE648" unicode="&#xe648;" 
d="M140 264l356 -356q8 -8 19.5 -8t19.5 8q3 3 5 7l351 351q8 8 8 19t-8 19t-19.5 8t-19.5 -8l-309 -309v671q0 12 -8 20t-19.5 8t-19.5 -8t-8 -20v-672l-310 309q-8 8 -19 8t-19 -8t-8 -19.5t8 -19.5z" />
    <glyph glyph-name="uniE649" unicode="&#xe649;" 
d="M512 711q84 0 160 -32q74 -31 131 -88t88 -131q32 -76 32 -160t-32 -160q-31 -74 -88 -131t-131 -88q-76 -32 -160 -32t-160 32q-74 31 -131 88t-88 131q-32 76 -32 160t32 160q31 74 88 131t131 88q76 32 160 32zM512 747q-91 0 -173.5 -35.5t-142.5 -95.5t-95.5 -142.5
t-35.5 -173.5t35.5 -173.5t95.5 -142.5t142.5 -95.5t173.5 -35.5t173.5 35.5t142.5 95.5t95.5 142.5t35.5 173.5t-35.5 173.5t-95.5 142.5t-142.5 95.5t-173.5 35.5zM521 553l209 -104q11 -6 11 -18v-262q0 -14 -13 -18l-207 -104q-9 -4 -18 0l-209 105q-11 5 -11 17v262
q0 13 13 18l207 104q9 5 18 0v0zM443 479l174 -87l70 35l-175 87zM338 427l174 -88l78 40l-174 87zM323 408v-227l177 -89v227zM524 92l178 89v227q-13 -6 -178 -89v-227z" />
    <glyph glyph-name="uniE64A" unicode="&#xe64a;" 
d="M512 711q84 0 160 -32q74 -31 131 -88t88 -131q32 -76 32 -160t-32 -160q-31 -74 -88 -131t-131 -88q-76 -32 -160 -32t-160 32q-74 31 -131 88t-88 131q-32 76 -32 160t32 160q31 74 88 131t131 88q76 32 160 32zM512 747q-91 0 -173.5 -35.5t-142.5 -95.5t-95.5 -142.5
t-35.5 -173.5t35.5 -173.5t95.5 -142.5t142.5 -95.5t173.5 -35.5t173.5 35.5t142.5 95.5t95.5 142.5t35.5 173.5t-35.5 173.5t-95.5 142.5t-142.5 95.5t-173.5 35.5zM332 480q74 75 180 75t180 -75q75 -74 75 -180t-75 -180q-74 -75 -180 -75t-180 75q-75 74 -75 180t75 180
v0zM360 148v-1q63 -63 152.5 -63t151.5 63l1 1q62 62 62 152t-62 152l-1 1q-62 63 -151.5 63t-152.5 -63v-1q-64 -62 -64 -152t64 -152zM490 310l-59 115l-3 6l5 3l11 5l6 3l3 -5l59 -115l59 115l4 6l5 -3l11 -6l6 -3l-3 -6l-60 -115h63h7v-7v-12v-6h-7h-72v-40h72h7v-6v-12
v-7h-7h-72v-56v-7h-7h-12h-6v7v56h-73h-7v7v12v6h7h73v40h-73h-7v6v12v7h7h63z" />
    <glyph glyph-name="uniE64B" unicode="&#xe64b;" 
d="M512 711q84 0 160 -32q74 -31 131 -88t88 -131q32 -76 32 -160t-32 -160q-31 -74 -88 -131t-131 -88q-76 -32 -160 -32t-160 32q-74 31 -131 88t-88 131q-32 76 -32 160t32 160q31 74 88 131t131 88q76 32 160 32zM512 747q-91 0 -173.5 -35.5t-142.5 -95.5t-95.5 -142.5
t-35.5 -173.5t35.5 -173.5t95.5 -142.5t142.5 -95.5t173.5 -35.5t173.5 35.5t142.5 95.5t95.5 142.5t35.5 173.5t-35.5 173.5t-95.5 142.5t-142.5 95.5t-173.5 35.5zM532 541l53 -165h174q8 0 14 -6t6 -15q0 -10 -8 -16l-141 -102l54 -166q3 -7 -1 -15t-12 -10q-10 -4 -18 3
l-141 102l-140 -102q-7 -5 -15.5 -4t-13.5 8q-7 9 -3 20l54 164l-141 102q-7 5 -8 13.5t4 14.5q5 9 16 9h174l54 165q2 8 9.5 12t15.5 1q10 -3 14 -13v0zM550 349l-38 119l-38 -118q-4 -15 -20 -15h-125l101 -74q12 -8 8 -23l-39 -119l100 74q12 10 25 0l101 -74l-39 119
q-4 15 8 23l101 74h-123q-16 -2 -22 14z" />
    <glyph glyph-name="uniE64C" unicode="&#xe64c;" 
d="M512 711q84 0 160 -32q74 -31 131 -88t88 -131q32 -76 32 -160t-32 -160q-31 -74 -88 -131t-131 -88q-76 -32 -160 -32t-160 32q-74 31 -131 88t-88 131q-32 76 -32 160t32 160q31 74 88 131t131 88q76 32 160 32zM512 747q-91 0 -173.5 -35.5t-142.5 -95.5t-95.5 -142.5
t-35.5 -173.5t35.5 -173.5t95.5 -142.5t142.5 -95.5t173.5 -35.5t173.5 35.5t142.5 95.5t95.5 142.5t35.5 173.5t-35.5 173.5t-95.5 142.5t-142.5 95.5t-173.5 35.5zM457 324q-5 0 -8.5 3.5t-3.5 7.5q0 12 12 12h167q5 0 8.5 -3.5t3.5 -8t-3.5 -8t-8.5 -3.5h-167zM399 192
q8 0 13.5 -6t5.5 -14t-5.5 -13.5t-13.5 -5.5t-13.5 5.5t-5.5 13.5t5.5 14t13.5 6v0zM399 273q8 0 13.5 -5.5t5.5 -13.5t-5.5 -13.5t-13.5 -5.5t-13.5 5.5t-5.5 13.5t5.5 13.5t13.5 5.5v0zM399 355q8 0 13.5 -6t5.5 -14t-5.5 -13.5t-13.5 -5.5t-13.5 5.5t-5.5 13.5t5.5 14
t13.5 6v0zM512 557q-31 0 -54 -23q-15 -15 -20 -35h-61h-1q-4 0 -7.5 -3.5t-3.5 -8.5v-10h-53q-8 0 -13.5 -6t-5.5 -14v-394q0 -9 5.5 -14.5t13.5 -5.5h400q8 0 13.5 5.5t5.5 14.5v394q0 8 -5.5 14t-13.5 6h-53v10q0 5 -3.5 8.5t-7.5 3.5h-62q-5 20 -20 35q-23 23 -54 23v0z
M562 499h-50h-50q4 11 13 19q15 16 37 16t37 -16q9 -8 13 -19v0zM659 438v-11q0 -4 -3.5 -7.5t-7.5 -3.5h-1h-135h-136q-4 0 -7.5 3.5t-3.5 7.5v1v10h-34v-356h362v356h-34zM512 476h124v-19v-18h-124h-124v18v19h124v0zM457 161q-5 0 -8.5 3.5t-3.5 8t3.5 8t8.5 3.5h167
q5 0 8.5 -3.5t3.5 -8t-3.5 -8t-8.5 -3.5h-167zM457 242q-5 0 -8.5 3.5t-3.5 8.5t3.5 8t8.5 3h167q5 0 8.5 -3t3.5 -8t-3.5 -8.5t-8.5 -3.5h-167z" />
    <glyph glyph-name="uniE64D" unicode="&#xe64d;" 
d="M512 711q84 0 160 -32q74 -31 131 -88t88 -131q32 -76 32 -160t-32 -160q-31 -74 -88 -131t-131 -88q-76 -32 -160 -32t-160 32q-74 31 -131 88t-88 131q-32 76 -32 160t32 160q31 74 88 131t131 88q76 32 160 32zM512 747q-91 0 -173.5 -35.5t-142.5 -95.5t-95.5 -142.5
t-35.5 -173.5t35.5 -173.5t95.5 -142.5t142.5 -95.5t173.5 -35.5t173.5 35.5t142.5 95.5t95.5 142.5t35.5 173.5t-35.5 173.5t-95.5 142.5t-142.5 95.5t-173.5 35.5zM512 556q31 0 53 -23q16 -15 21 -35h61q5 0 8.5 -3.5t3.5 -8.5v-10h52q8 0 14 -5.5t6 -13.5v-1v-392
q0 -9 -6 -14.5t-14 -5.5h-398q-8 0 -14 5.5t-6 14.5v393q0 8 6 13.5t14 5.5h52v10q0 5 3.5 8.5t8.5 3.5h62q5 21 20 35q22 23 53 23v0zM595 336l-115 -115l-51 50q-6 6 -13.5 6t-13.5 -5.5t-6 -13.5t6 -14l64 -64q6 -6 14 -6t13 6l129 128q6 6 6 14t-6 14q-5 5 -13 5t-14 -5
v0zM562 498q-5 11 -13 19q-15 16 -36.5 16t-37.5 -16q-8 -8 -12 -19h49h50zM659 438v-11q0 -5 -3.5 -8.5t-8.5 -3.5h-135h-135q-5 0 -8.5 3.5t-3.5 8.5v11h-33v-355h360v355h-33zM512 475h-124v-18v-19h124h124v19v18h-124z" />
    <glyph glyph-name="uniE64E" unicode="&#xe64e;" 
d="M829 244h-74q-8 0 -13.5 -5.5t-5.5 -13t5.5 -13t13.5 -5.5h74q8 0 13.5 5.5t5.5 13t-5.5 13t-13.5 5.5zM829 169h-74q-8 0 -13.5 -5.5t-5.5 -13t5.5 -13t13.5 -5.5h74q8 0 13.5 5.5t5.5 13t-5.5 13t-13.5 5.5zM531 337h-336q-8 0 -13.5 -5.5t-5.5 -13t5.5 -13t13.5 -5.5
h336q7 0 12.5 5.5t5.5 13t-5.5 13t-12.5 5.5zM960 431v74q0 47 -33 79.5t-79 32.5h-672q-46 0 -79 -32.5t-33 -79.5v-410q0 -47 33 -79.5t79 -32.5h672q46 0 79 32.5t33 79.5v336zM176 580h672q31 0 52.5 -22t21.5 -53v-56h-820v56q0 31 21.5 53t52.5 22zM848 20h-672
q-31 0 -52.5 22t-21.5 53v317h820v-317q0 -31 -21.5 -53t-52.5 -22z" />
    <glyph glyph-name="uniE64F" unicode="&#xe64f;" 
d="M729 157q12 0 20.5 -9t8.5 -21t-8.5 -20.5t-20.5 -8.5t-21 8.5t-9 20.5t9 21t21 9zM647 287h163l-48 96h-115v-96zM828 252h-181v-96q11 -1 18.5 -9.5t7.5 -19.5q0 -23 16 -39v-1q16 -16 40 -16q22 0 38 16l1 1q17 16 17 38v1q0 12 8.5 21t20.5 9h23v78zM840 98
q-8 -30 -30 -52l-2 -2q-33 -32 -79 -32q-48 0 -81 34h-1q-21 21 -29 52h-1h-173q-8 -30 -30 -52q-33 -34 -81 -34t-81 34q-22 22 -30 52h-64q-12 0 -21 8.5t-9 20.5v1v431q0 12 9 20.5t21 8.5h1h459q12 0 20.5 -8.5t8.5 -20.5v-2v-116h133q20 0 28 -18l84 -169q3 -5 3 -13h1
v-114q0 -12 -9 -20.5t-21 -8.5h-1h-25zM588 529h-401v-372h60h1q12 0 20.5 -9t8.5 -21q0 -23 16 -39q17 -17 40 -17t40 17q16 16 16 38v1q0 12 8.5 21t20.5 9h170v255v1v116zM333 157q12 0 20.5 -9t8.5 -21t-8.5 -20.5t-20.5 -8.5t-20.5 8.5t-8.5 20.5t8.5 21t20.5 9z" />
    <glyph glyph-name="uniE650" unicode="&#xe650;" 
d="M512 300zM626 414q0 47 -33.5 80.5t-80.5 33.5t-80.5 -33.5t-33.5 -80.5t33.5 -80.5t80.5 -33.5t80.5 33.5t33.5 80.5zM436 413.5q0 31.5 22.5 54t53.5 22.5t53.5 -22.5t22.5 -54t-22.5 -53.5t-53.5 -22t-53.5 22t-22.5 53.5zM512 14q19 0 66 41.5t96 100t86 131
t37 125.5q0 119 -83.5 203t-201.5 84t-201.5 -84t-83.5 -203q0 -54 38.5 -127t88.5 -131t96 -99t62 -41zM512 661q102 0 174.5 -73t72.5 -176q0 -46 -32 -108.5t-75 -114t-82.5 -90t-57.5 -46.5q-17 9 -56 47.5t-82.5 90t-76 113.5t-32.5 108q0 103 72.5 176t174.5 73z
M954 -30l-190 209q-6 7 -14 7h-33q-8 0 -13.5 -6t-5.5 -13.5t5.5 -13t13.5 -5.5h24l156 -172h-308q-7 2 -14 -2l-46 -27q-2 -1 -4 -3q-5 -5 -13 -5t-13 5q-2 2 -4 3l-46 27q-7 4 -14 2h-311l140 172h23q7 0 13 5.5t6 13t-6 13.5t-13 6h-32q-9 0 -15 -7l-171 -210
q-7 -9 -2 -20t17 -11h351l39 -22q16 -15 38 -15t38 15l39 22h351q12 0 17 11.5t-3 20.5z" />
    <glyph glyph-name="uniE651" unicode="&#xe651;" 
d="M512 300zM732 99q0 -9 6 -15t14 -6h188q8 0 14.5 6t6.5 15t-6.5 15t-14.5 6h-188q-8 0 -14 -6t-6 -15zM940 -47h-375q-9 0 -15 -6t-6 -14.5t6 -14.5t15 -6h375q8 0 14.5 6t6.5 14.5t-6.5 14.5t-14.5 6zM718 442l-339 -340q-7 -6 -7 -14.5t6.5 -14.5t15 -6t14.5 6l340 339
q6 7 6 15.5t-6 14.5t-15 6t-15 -6zM895 501l-206 206q-18 18 -44.5 18t-44.5 -18l-516 -517q-8 -7 -13 -23.5t-6.5 -26.5t-1.5 -13q0 -2 1 -4l29 -165q1 -22 16 -37t37 -16l165 -29q2 -1 4 -1q3 0 13 1.5t26.5 6.5t24.5 13l516 516q18 19 18 45t-18 44zM152 -54h-4
q-6 0 -10 4t-4 10v4l-29 164q2 18 7 30l234 -234q-13 -5 -30 -7zM866 442l-486 -485v1l-234 234h-1l485 486q6 5 14.5 5t14.5 -5l207 -207q6 -6 6 -14.5t-6 -14.5z" />
    <glyph glyph-name="uniE652" unicode="&#xe652;" 
d="M464 45q-9 0 -15 -6t-6 -15v-39q0 -8 6 -14t15 -6t14.5 6t5.5 14v39q0 9 -5.5 15t-14.5 6zM348 45q-8 0 -14 -6t-6 -15v-39q0 -8 6 -14t14.5 -6t14.5 6t6 14v39q0 9 -6 15t-15 6zM482 258h-133q-8 0 -14.5 -6t-6.5 -15v-132q0 -9 6.5 -15t14.5 -6h133q9 0 15 6t6 15v132
q0 9 -6 15t-15 6zM461 125h-91v92h91v-92zM406 45q-8 0 -14.5 -6t-6.5 -15v-39q0 -8 6.5 -14t14.5 -6q9 0 15 6t6 14v39q0 9 -6 15t-15 6zM799 45q-9 0 -15 -6t-6 -15v-39q0 -8 6 -14t15 -6t15 6t6 14v39q0 9 -6 15t-15 6zM741 45q-8 0 -14.5 -6t-6.5 -15v-39q0 -8 6.5 -14
t15 -6t14.5 6t6 14v39q0 9 -6 15t-15 6zM857 45q-9 0 -15 -6t-6 -15v-39q0 -8 6 -14t14.5 -6t15 6t6.5 14v39q0 9 -6.5 15t-14.5 6zM943 409v0q-21 23 -51 23h-44l-144 248q-1 3 -4 6q-14 23 -39 31q-27 9 -52 -4l-6 -4l-504 -291l-3 -1q-25 -15 -32 -45q-6 -27 9 -53
l161 -279v-87q0 -29 19 -51q20 -22 50 -22h589q30 0 51 22q18 22 18 51v406q0 29 -18 50zM234 359v-181l-101 175q-1 2 -1 4h-1l1 1h1l507 293q2 -1 3 -3l1 -1l124 -215h-465q-29 0 -49 -21.5t-20 -51.5zM892 -47q0 -3 -1 -4h-587q-1 1 -1 4v406v1v0v1v0v0v1h1v0v1h587
q1 -2 1 -4v-406zM660 45q-8 0 -14 -6t-6 -15v-39q0 -8 6 -14t14.5 -6t14.5 6t6 14v39q0 9 -6 15t-15 6zM603 45q-9 0 -15 -6t-6 -15v-39q0 -8 6 -14t14.5 -6t14.5 6t6 14v39q0 9 -6 15t-14 6zM545 45q-9 0 -15 -6t-6 -15v-39q0 -8 6 -14t14.5 -6t14.5 6t6 14v39q0 9 -6 15
t-14 6zM132 358v-1v1z" />
    <glyph glyph-name="uniE653" unicode="&#xe653;" 
d="M136 524v-36h698v-394h36v394v36h-36h-698zM923 613h-697v-36h697v-393h36v393v36h-36zM780 452h-697q-8 0 -13 -5t-5 -13v-429q0 -8 5 -13t13 -5h697q8 0 13 5t5 13v429q0 8 -5 13t-13 5zM762 23h-661v393h661v-393zM388 174h-19q-1 -44 55 -48v-14h13v14q55 2 57 48
q2 37 -57 53v72q34 -2 35 -31h19q-6 43 -54 46v13h-13v-13q-47 -6 -52 -50q-1 -35 43 -49q7 -2 9 -3v-72q-38 3 -36 34zM437 209q1 0 4 -1q34 -13 34 -34q-2 -30 -38 -34v69zM391 264q2 31 33 35v-68q-33 8 -33 33z" />
    <glyph glyph-name="uniE654" unicode="&#xe654;" 
d="M357 250h-41q-8 0 -14 -6t-6 -14t6 -14t14 -6h41q9 0 15 6t6 14t-6 14t-15 6zM708 108h-257q-8 0 -14 -6t-6 -14t6 -14t14 -6h257q8 0 14 5.5t6 14t-6 14.5t-14 6zM357 393h-41q-8 0 -14 -6t-6 -14.5t6 -14.5t14 -6h41q9 0 15 6t6 14.5t-6 14.5t-15 6zM885 485l-244 243
q-9 10 -23 10h-399q-37 0 -64 -27q-26 -27 -26 -63v-696q0 -36 26 -63h1q26 -27 63 -27h586q37 0 63 26l1 1q26 26 26 63v508q0 13 -10 25zM638 636l155 -155h-119q-15 0 -25 10l-1 1q-10 10 -10 25v119zM828 -48q0 -10 -7 -16q-6 -6 -16 -6h-586q-10 0 -16 6q-7 6 -7 16
v696q0 9 7 16t16 7h378v-154q0 -30 22 -53l1 -1q22 -23 54 -23h154v-488zM431 372q0 -8 6 -14t14 -6h257q8 0 14 6t6 14.5t-6 14.5t-14 6h-257q-8 0 -14 -6t-6 -15zM708 250h-257q-8 0 -14 -6t-6 -14t6 -14t14 -6h257q8 0 14 6t6 14t-6 14t-14 6zM357 108h-41q-8 0 -14 -6
t-6 -14.5t6 -14t14 -5.5h41q9 0 15 5.5t6 14t-6 14.5t-15 6z" />
    <glyph glyph-name="uniE655" unicode="&#xe655;" 
d="M512 300zM895 -3l-87 151q21 9 33 29v0q13 23 7 49l-11 53l-1 1l36 39l2 2q18 20 18 46t-18 46l-38 41l12 54q6 26 -7 49t-39 31l-53 16l-16 53q-8 26 -31 39t-48 8l-54 -13h-1l-39 36l-2 2q-19 18 -45.5 18t-46.5 -18l-39 -37l-2 -1l-54 13q-26 5 -49 -8
q-22 -13 -31 -39l-16 -52v-1l-54 -16q-26 -8 -38 -31q-13 -22 -8 -49l13 -54l-36 -39l-2 -2q-18 -19 -18 -46t18 -46l37 -40l1 -1l-12 -53l-1 -1q-5 -27 8 -49q12 -20 33 -29l-87 -151q-4 -7 -1.5 -15.5t9.5 -12.5q4 -3 10 -3l119 1l58 -103q4 -8 12.5 -10.5t15.5 2.5
q6 3 9 8l89 155l16 -14q20 -18 46 -18q27 0 46 18l16 14l89 -155q3 -5 8 -8q8 -4 16.5 -2t12.5 10l58 103l118 -1q7 0 11 3q7 4 9.5 12t-1.5 16zM342 -84l-46 82q-6 11 -18 11l-94 -1l73 127l18 -5l16 -54q8 -24 31 -38q23 -13 49 -7l43 10zM578 109q-15 -4 -26 -14l-2 -2
l-38 -36l-41 38h1q-12 11 -29 15q-14 5 -32 1l-54 -12l-16 52v0q-4 16 -17 28q-11 11 -28 17l-52 16l12 54q4 16 0 32l-1 3q-5 14 -15 26l-2 2l-36 38l1 1l37 39q11 13 16 29v0q4 16 0 32l-12 54l52 16q17 5 28 17q12 11 17 28v1l16 51l54 -12q17 -4 32 1q17 4 29 15l2 2
l38 36h1l39 -38q12 -11 29 -15q15 -5 32 -1l1 1l53 11l16 -52v0q11 -34 45 -45l52 -16l-12 -54q-4 -17 0 -32.5t16 -28.5l38 -40l-1 -1l-37 -39q-12 -13 -16 -29v-2q-3 -15 0 -30v-1l12 -53l-52 -16q-17 -6 -28 -17q-12 -11 -17 -28v-1l-16 -51l-54 12q-18 4 -32 -1zM746 9
q-12 0 -18 -11l-47 -82l-71 125l42 -10h1q24 -6 46 5l3 2q22 12 30 36l1 2l16 53v1l18 5l73 -127zM641 238q54 53 54 129t-54 129q-53 54 -129 54t-130 -54q-53 -53 -53 -129q0 -74 52 -128l1 -1q54 -54 130 -54t129 54zM612 267v0q-41 -41 -100 -41t-100 41l-1 1
q-40 42 -40 99.5t41 99.5q41 41 100 41t100 -41q41 -42 41 -100q0 -59 -41 -100v0z" />
    <glyph glyph-name="uniE656" unicode="&#xe656;" 
d="M924 545h-1q-35 36 -86 36h-29q0 8 -3 12l-86 149q-4 8 -12 10t-16 -2l-194 -102l-175 101l-1 1q-8 4 -16 2t-13 -10l-86 -149q-3 -5 -2 -12h-17q-50 0 -86 -36q-36 -35 -36 -86v-489q0 -51 35 -86l1 -1q37 -36 86 -36h650q50 0 86 36t36 87v489q0 50 -35 86zM693 705
l72 -124h-152l-73 43zM318 704q69 -40 213 -123h-284zM891 102h-260q-5 0 -10 4q-4 4 -4 9v198q0 6 4 10t10 4h260v-225zM891 368h-260q-23 0 -39 -16t-16 -39v-198q0 -22 16 -38v-1q17 -15 39 -15h260v-91q0 -23 -16 -38q-16 -16 -38 -16h-650q-22 0 -37 16q-16 15 -16 38
v489q0 22 16 38q15 16 37 16h650q22 0 38 -16t16 -38v-91zM697 152q26 -25 61 -25q36 0 62 25q26 26 26 62q0 35 -25 61l-1 1q-26 25 -62 25t-60 -24l-2 -1q-25 -25 -25 -62q0 -36 25 -62h1zM726 247l1 1q13 12 31 12q19 0 33 -13l1 -1q12 -13 12 -32t-13 -32
q-13 -14 -33 -14q-18 0 -32 14q-14 13 -14 32.5t14 32.5z" />
    <glyph glyph-name="uniE657" unicode="&#xe657;" 
d="M560 291q-38 0 -62 -33q-24 34 -62 34q-29 0 -50.5 -22.5t-22.5 -62.5q0 -21 11.5 -38.5t22 -25.5t30.5 -19q10 -6 14 -8q19 -12 32 -26.5t14 -20.5q3 -8 11 -8q9 0 11 9q2 5 15.5 19.5t31.5 26.5q5 4 16 11q19 11 29 18.5t21 24.5t11 38q-1 39 -22.5 61t-50.5 22z
M560 146q-12 -7 -17 -11q-27 -18 -45 -41q-18 23 -45 41q-5 3 -14 8q-18 11 -26.5 17t-17.5 19t-9 28q0 30 15 46.5t35 16.5q35 0 52 -39q3 -7 10 -7t10 7q17 38 52 38q20 0 35 -16t15 -46q0 -14 -8 -26.5t-16.5 -18.5t-25.5 -16zM914 -93l-43 607q-1 18 -16 31t-36 13h-132
q-5 58 -21 95q-39 95 -168 95q-93 0 -138 -46q-44 -43 -51 -144h-104q-21 0 -36 -13t-16 -31l-43 -607q-2 -22 13 -38q16 -17 39 -17h700q23 0 39 17q15 16 13 38zM376 686q38 39 122 39q59 0 94.5 -19.5t52.5 -61.5q14 -33 19 -86h-332q7 91 44 128zM884 -116q-9 -9 -22 -9
h-700q-13 0 -22 9q-8 9 -8 22l43 606q1 10 9.5 16.5t20.5 6.5h103q-2 -29 -1 -88v-6v-5h22v5v6q0 60 1 88h335q2 -31 2 -99h23q0 68 -2 99h131q12 0 20.5 -6.5t9.5 -16.5l43 -606q0 -13 -8 -22z" />
    <glyph glyph-name="uniE658" unicode="&#xe658;" 
d="M512 592q121 0 207 -85l1 -2q84 -85 84 -205q0 -46 -14 -91q-13 -40 -37 -75v-104q0 -9 -7 -15.5t-16 -6.5h-1h-217q-120 0 -207 85v0q-85 85 -85 206.5t85 207.5q86 85 207 85zM366 359h292q5 0 9 3.5t4 9.5t-4 9.5t-9 3.5h-292q-5 0 -9 -3.5t-4 -9.5t4 -9.5t9 -3.5z
M366 287h292q5 0 9 3.5t4 9.5t-4 9.5t-9 3.5h-292q-5 0 -9 -3.5t-4 -9.5t4 -9.5t9 -3.5zM366 215h292q5 0 9 3.5t4 9.5t-4 9.5t-9 3.5h-292q-5 0 -9 -3.5t-4 -9.5t4 -9.5t9 -3.5zM687 475q-73 72 -175 72t-175 -72v0q-72 -72 -72 -175t72 -175q73 -72 175 -72h195v88
q0 7 5 13q22 31 35 69q12 38 12 77q0 102 -71 174zM512 717q85 0 162 -32q75 -32 133 -90t90 -133q32 -77 32 -162t-32 -162q-32 -75 -90 -133t-133 -90q-77 -32 -162 -32t-162 32q-75 32 -133 90t-90 133q-32 77 -32 162t32 162q32 75 90 133t133 90q77 32 162 32zM512 748
q-91 0 -174 -35.5t-143 -95.5t-95.5 -143t-35.5 -174t35.5 -174t95.5 -143t143 -95.5t174 -35.5t174 35.5t143 95.5t95.5 143t35.5 174t-35.5 174t-95.5 143t-143 95.5t-174 35.5z" />
    <glyph glyph-name="uniE659" unicode="&#xe659;" 
d="M117 486l137 136q6 7 6 16t-6.5 15t-15.5 6t-15 -6l-151 -150v-1v-1h-1q-6 -6 -6 -15.5t6 -15.5l152 -152q7 -7 16 -7t15.5 6.5t6.5 15.5t-7 16zM676 508h-318l114 114q6 7 6 16t-6 15t-15.5 6t-15.5 -6l-150 -150l-1 -1v-1h-1q-6 -6 -6 -15.5t6 -15.5l152 -152
q7 -7 16 -7t15.5 6.5t6.5 15.5t-6 16l-116 115h319q99 0 169.5 -70.5t70.5 -169.5t-70.5 -169.5t-169.5 -70.5h-349v0q-9 0 -15.5 -6.5t-6.5 -15.5t6.5 -15t15.5 -6h349q117 0 200 83t83 200.5t-83 200.5t-200 83z" />
    <glyph glyph-name="uniE65A" unicode="&#xe65a;" 
d="M931 622q-6 47 -18 97q-3 12 -13 20.5t-23 8.5h-730q-12 0 -21.5 -7.5t-13.5 -19.5q-13 -49 -19 -99q-6 -53 -6 -100q0 -220 111 -400q55 -89 131.5 -157.5t168.5 -109.5q15 -6 28 0q92 41 168.5 109.5t131.5 157.5q111 180 111 400q0 53 -6 100zM766 160
q-97 -158 -254 -233q-158 75 -253 233q-101 163 -101 362q0 46 5 92q5 36 11 63h676q7 -32 11 -63q6 -48 6 -92q0 -199 -101 -362zM788 547v0q0 13 -2 25q0 8 -6 13.5t-15 5.5h-506q-9 0 -15 -5.5t-6 -14.5q-2 -11 -2 -24v-1v-24q0 -154 71 -287t194 -207q11 -7 22 0
q122 74 194 207q72 135 72 287q0 4 -0.5 12.5t-0.5 12.5zM278 522q0 17 1 23v1v3h407l-342 -292q-66 122 -66 265zM680 255q-63 -116 -168 -184q-76 48 -131 125l365 311q-4 -134 -66 -252z" />
    <glyph glyph-name="uniE65B" unicode="&#xe65b;" horiz-adv-x="1025" 
d="M494 24l-2 2l-492 466l100 83l401 -380l430 354l93 -89l-529 -434zM494 24z" />
    <glyph glyph-name="uniE65C" unicode="&#xe65c;" 
d="M512 300zM478 501q0 14 10 24.5t24 10.5t24.5 -10.5t10.5 -24.5v-166q0 -14 -10.5 -24t-24.5 -10t-24 10t-10 24v166zM512 748q91 0 172.5 -35t143.5 -97h1q62 -61 96.5 -143t34.5 -173t-34.5 -173t-96.5 -144h-1q-62 -62 -143.5 -96.5t-172.5 -34.5t-172.5 34.5
t-143.5 96.5v1q-62 62 -97 143.5t-35 172.5t35 173t97 143q62 62 143.5 97t172.5 35zM780 568q-52 52 -121.5 81.5t-146.5 29.5t-146 -29.5t-122 -81.5q-52 -53 -81.5 -122t-29.5 -146t29.5 -146.5t81.5 -121.5q53 -52 122 -81.5t146 -29.5t146.5 29.5t121.5 81.5
t81.5 121.5t29.5 146.5t-29.5 146t-81.5 122v0zM630 417q-10 11 -10 25t10 24t24.5 10t23.5 -10q17 -15 29 -35q12 -18 22 -40q10 -23 14 -44q5 -25 5 -47t-5 -47q-4 -22 -14 -44q-9 -21 -22 -41q-12 -18 -29 -35q-13 -14 -34 -29q-20 -13 -41 -21q-19 -8 -44 -14
q-29 -5 -47 -5q-17 0 -47 5q-23 5 -44 14q-23 10 -40 21q-22 16 -35 29q-16 16 -29 35q-14 21 -22 41q-8 18 -13 44q-5 23 -5 47t5 47q5 25 13 44q9 21 22 40q13 21 29 35q10 10 24 10t25 -10q10 -10 10 -24t-10 -25q-11 -9 -21 -24q-9 -12 -16 -28q-7 -18 -9 -32
q-3 -15 -3 -33q0 -19 3 -33q2 -13 9 -32q8 -17 16 -28q10 -14 21 -25q12 -12 24 -20q13 -9 28 -16t32 -9q16 -4 33 -4q18 0 33 4q16 2 32 9q15 7 28 16q11 7 25 20q12 13 20 25q9 13 16 28q6 15 9.5 31.5t3.5 33.5q0 16 -4 33q-3 17 -9 32q-6 14 -16 28q-8 13 -20 24z" />
    <glyph glyph-name="uniE65D" unicode="&#xe65d;" 
d="M341 709q42 0 71.5 -29.5t29.5 -71.5v-137v-4q0 -54 -1.5 -71t-4.5 -21q-3 -2 -14 -4q-13 -1 -47 -1h-15h-19h-137q-42 0 -71.5 29.5t-29.5 71.5v137q0 42 29.5 71.5t71.5 29.5h137zM341 745h-137q-57 0 -97 -40t-40 -97v-137q0 -57 40 -97t97 -40h137h17h17h34
q12 0 25 3.5t19 5t12 11t7.5 15t3.5 24.5t2 31v43v4v137q0 57 -40 97t-97 40zM820 709q42 0 71.5 -29.5t29.5 -71.5v-137q0 -42 -29.5 -71.5t-71.5 -29.5h-137h-4h-4q-51 0 -68 2q-15 1 -19 4q-3 4 -4 20q-2 17 -2 71v4v137q0 42 29.5 71.5t71.5 29.5h137zM820 745h-137
q-57 0 -97 -40t-40 -97v-137v-4q0 -99 16.5 -116t112.5 -17h8h137q57 0 97 40t40 97v137q0 57 -40 97t-97 40zM341 230q54 0 73 -2q16 -3 19.5 -6.5t6.5 -19.5q2 -19 2 -73v-137q0 -42 -29.5 -71.5t-71.5 -29.5h-137q-42 0 -71.5 29.5t-29.5 71.5v137q0 42 29.5 71.5
t71.5 29.5h137zM341 266h-137q-57 0 -97 -40t-40 -97v-137q0 -57 40 -97t97 -40h137q57 0 97 40t40 97v137q0 29 -0.5 44t-3 32.5t-5 25t-11 16t-16 11t-25 5t-32.5 3t-44 0.5zM675 266v-36h4h4h137q42 0 71.5 -29.5t29.5 -71.5v-137q0 -42 -29.5 -71.5t-71.5 -29.5h-137
q-42 0 -71.5 29.5t-29.5 71.5v137v4q0 54 2 71q1 16 4 20q4 3 19 4q17 2 68 2v36zM675 266q-96 0 -112.5 -17t-16.5 -116v-4v-137q0 -57 40 -97t97 -40h137q57 0 97 40t40 97v137q0 57 -40 97t-97 40h-137h-8z" />
    <glyph glyph-name="uniE65E" unicode="&#xe65e;" 
d="M397 712q9 0 15.5 -6.5t6.5 -15.5v-780q0 -9 -6.5 -15.5t-15.5 -6.5h-278q-9 0 -15.5 6.5t-6.5 15.5v780q0 9 6.5 15.5t15.5 6.5h278zM397 748h-278q-24 0 -40.5 -17t-16.5 -41v-780q0 -24 16.5 -41t40.5 -17h278q24 0 41 17t17 41v780q0 24 -17 41t-41 17zM905 712
q9 0 15.5 -6.5t6.5 -15.5v-780q0 -9 -6.5 -15.5t-15.5 -6.5h-278q-9 0 -15.5 6.5t-6.5 15.5v780q0 9 6.5 15.5t15.5 6.5h278zM905 748h-278q-24 0 -41 -17t-17 -41v-780q0 -24 17 -41t41 -17h278q24 0 40.5 17t16.5 41v780q0 24 -16.5 41t-40.5 17z" />
    <glyph glyph-name="uniE65F" unicode="&#xe65f;" 
d="M477 502q0 14 10.5 24t24.5 10t24.5 -10t10.5 -24v-167q0 -14 -10.5 -24.5t-24.5 -10.5t-24.5 10.5t-10.5 24.5v167zM512 749q91 0 173 -35t144 -97v0q62 -62 97 -144t35 -173t-35 -173t-97 -144v0q-62 -63 -144 -97.5t-173 -34.5t-173 34.5t-144 97.5h-1
q-62 62 -96.5 144t-34.5 173t34.5 173t96.5 144h1q62 62 144 97t173 35zM780 568q-52 53 -121.5 82.5t-147 29.5t-146.5 -29.5t-122 -82.5q-52 -52 -81.5 -121.5t-29.5 -146.5t29.5 -146.5t81.5 -121.5q53 -53 122 -82.5t146.5 -29.5t147 29.5t121.5 82.5h1
q52 52 81.5 121.5t29.5 146.5t-29.5 146.5t-81.5 121.5h-1zM630 418q-10 10 -10 24.5t10 24.5t24.5 10t24.5 -10q17 -17 28 -35q13 -19 22 -40q10 -22 14 -45q5 -21 5 -47t-5 -47q-5 -24 -14 -45q-9 -22 -22 -40q-11 -18 -28 -35q-14 -14 -35 -29q-17 -11 -40 -22
q-25 -9 -45 -13q-22 -5 -47 -5q-26 0 -47 5q-21 4 -45 13q-21 10 -40 22q-20 14 -35 29q-18 18 -28 35q-14 19 -22 40q-9 20 -14 45q-5 24 -5 47t5 47t14 45q8 20 22 40q10 17 28 35q10 10 24.5 10t24.5 -10t10 -24.5t-10 -24.5q-12 -12 -21 -25q-9 -14 -15 -28t-10 -32
q-3 -19 -3 -33t3 -33q4 -18 10 -32q6 -13 15 -29q12 -16 21 -24q9 -10 25 -21q17 -11 28 -15q15 -6 31 -10q17 -3 34 -3t34 3q16 4 31 10q11 4 28 15q16 11 25 21q10 10 20 24q9 13 16 29q6 16 10 32q3 16 3 33t-3 33q-4 17 -10 32q-7 16 -16 28q-7 12 -20 25z" />
    <glyph glyph-name="uniE660" unicode="&#xe660;" 
d="M829 617q-62 62 -144 97t-173 35t-173 -35t-144 -97h-1q-62 -62 -96.5 -144t-34.5 -173t34.5 -173t96.5 -144h1q62 -63 144 -97.5t173 -34.5t173 34.5t144 97.5q62 62 97 144t35 173t-35 173t-97 144zM781 32h-1q-52 -53 -121.5 -82.5t-147 -29.5t-146.5 29.5t-121.5 82
t-82 122t-29.5 146.5t29.5 146.5t81.5 121.5q53 53 122 82.5t146.5 29.5t147 -29.5t121.5 -82.5h1q52 -52 81.5 -121.5t29.5 -146.5t-29.5 -146.5t-81.5 -121.5zM512 555q106 0 180 -75l1 -1q73 -74 73 -179q0 -40 -12 -79q-11 -35 -33 -66v-90q0 -8 -5.5 -14t-13.5 -6h-1
h-189q-105 0 -180 75q-74 75 -74 180q0 106 74 180q74 75 180 75zM385 351q-5 0 -8.5 3.5t-3.5 8.5t3.5 8t8.5 3h254q5 0 8.5 -3t3.5 -8t-3.5 -8.5t-8.5 -3.5h-254zM385 288q-5 0 -8.5 3.5t-3.5 8.5t3.5 8.5t8.5 3.5h254q5 0 8.5 -3.5t3.5 -8.5t-3.5 -8.5t-8.5 -3.5h-254z
M385 225q-5 0 -8.5 4t-3.5 8.5t3.5 8t8.5 3.5h254q5 0 8.5 -3.5t3.5 -8.5t-3.5 -8.5t-8.5 -3.5h-254zM664 452q-63 63 -152 63t-152 -63h-1q-63 -63 -63 -152t64 -152h-1q64 -63 153 -63h170v77q0 6 4 11q20 28 31 60q10 33 10 67q0 89 -62 151z" />
    <glyph glyph-name="uniE661" unicode="&#xe661;" 
d="M64 496q-1 -206 218 -351q35 -23 97 -58t94.5 -57t37.5 -39q1 5 5.5 11t12.5 13t15.5 12.5t21.5 14t23.5 14.5t28 16.5t29.5 16.5q14 6 14 21q0 9 -6.5 15.5t-15.5 6.5q-7 0 -13 -5q-9 -5 -23 -13q-69 -40 -92 -57q-25 19 -101 62q-70 40 -104 63q-89 58 -138 125
q-29 41 -44 85q-17 49 -16 104q0 113 58 178q50 57 121 57v43q-91 0 -156.5 -74.5t-66.5 -203.5zM854 213h-85v85q0 6 -4 10t-10 4t-10 -4t-4 -10v-85h-85q-6 0 -10 -4t-4 -10t4 -10t10 -4h85v-85q0 -6 4 -10.5t10 -4.5t10 4.5t4 10.5v85h85q6 0 10.5 4t4.5 10t-4.5 10
t-10.5 4zM879 276q78 95 78 222q-1 128 -66.5 200.5t-156.5 72.5q-68 0 -128.5 -43t-95.5 -125q-36 84 -96 127.5t-127 43.5v-43q53 0 99 -34q25 -18 46 -45q22 -29 38 -66q11 -26 40 -26t40 26q15 36 37 64q21 26 46 44q47 33 101 33q72 0 121 -55q57 -63 58 -174
q1 -103 -61 -187q-2 -3 -5 -6q-8 -7 -8 -17t6.5 -16t15.5 -6q8 0 15 5v0q2 2 3 5z" />
    <glyph glyph-name="uniE662" unicode="&#xe662;" 
d="M64 496q-1 -206 218 -351q35 -23 97 -58t94.5 -57t37.5 -39q1 5 5.5 11t12.5 13t15.5 12.5t21.5 14t23.5 14.5t28 16.5t29.5 16.5q14 6 14 21q0 9 -6.5 15.5t-15.5 6.5q-7 0 -13 -5q-9 -5 -23 -13q-69 -40 -92 -57q-25 19 -101 62q-70 40 -104 63q-89 58 -138 125
q-29 41 -44 85q-17 49 -16 104q0 113 58 178q50 57 121 57v43q-91 0 -156.5 -74.5t-66.5 -203.5zM879 276q78 95 78 222q-1 128 -66.5 200.5t-156.5 72.5q-68 0 -128.5 -43t-95.5 -125q-36 84 -96 127.5t-127 43.5v-43q53 0 99 -34q25 -18 46 -45q22 -29 38 -66
q11 -26 40 -26t40 26q15 36 37 64q21 26 46 44q47 33 101 33q72 0 121 -55q57 -63 58 -174q1 -103 -61 -187q-2 -3 -5 -6q-8 -7 -8 -17t6.5 -16t15.5 -6q8 0 15 5v0q2 2 3 5zM854 213h-45h-40h-28h-58h-27q-6 0 -10 -4t-4 -10t4 -10t10 -4h35h50h28h73h12q6 0 10.5 4t4.5 10
t-4.5 10t-10.5 4z" />
    <glyph glyph-name="uniE663" unicode="&#xe663;" 
d="M175 714h663q17 0 28.5 11.5t11.5 27.5t-11.5 27.5t-28.5 11.5h-663q-16 0 -27.5 -11.5t-11.5 -27.5t11.5 -27.5t27.5 -11.5zM156 773q8 8 19 8h663q12 0 20 -8t8 -19.5t-8 -19.5t-20 -8h-663q-11 0 -19 8t-8 19.5t8 19.5zM956 494v1l-74 191l-2 3h-4h-364h-364h-4l-2 -3
l-74 -191v-1q-6 -40 7 -75q14 -35 44 -56l2 -2h2h100h1l1 1q22 7 41 25q14 12 23 27q7 -17 18 -29q14 -17 33 -23l1 -1h1h107h1l1 1q25 11 42 31q12 14 19 30q7 -16 19 -30q17 -20 42 -31l1 -1h1h107h1l1 1q19 6 33 23q10 12 18 29q9 -15 23 -27q19 -18 41 -25l1 -1h1h100h2
l2 2q30 21 44 56q13 35 7 75zM917 29q0 -17 -11 -30q-10 -12 -24 -12h-730q-14 0 -25 12q-10 13 -10 30v290h-12v-290q0 -22 13 -37q14 -16 34 -16h730q19 0 33 16q14 15 14 37v290h-12v-290z" />
    <glyph glyph-name="uniE664" unicode="&#xe664;" 
d="M1017 276l-488 487q-7 7 -17 7t-17 -7l-366 -366l-122 -121q-7 -8 -7 -18t7 -17t17 -7t18 7l80 80v-404q0 -40 28.5 -68.5t68.5 -28.5h171q10 0 17 7t7 17v220h220q10 0 17 7t7 17t-7 17t-17 7h-244q-10 0 -17 -7t-7 -17v-219h-147q-20 0 -34 14t-14 34v453l341 341
l470 -470q7 -7 17.5 -7t17.5 7t7 17.5t-7 17.5zM878 210q-10 0 -17.5 -7.5t-7.5 -17.5v-268q0 -20 -14 -34t-34 -14h-171q-10 0 -17 -7.5t-7 -17.5t7 -17t17 -7h171q40 0 68.5 28.5t28.5 68.5v268q0 10 -7 17.5t-17 7.5z" />
    <glyph glyph-name="uniE665" unicode="&#xe665;" 
d="M967 610q-3 56 -44 96l-6 7q-41 41 -99 41q-54 0 -92 -38l-570 -570q-20 -20 -43.5 -81.5t-35 -101.5t-19.5 -76q-4 -15 7 -27l6 -6q9 -8 21 -8q3 0 6 1q36 8 77 18t103.5 33t82.5 43l570 570q39 40 36 99zM710 542q4 -4 10 -4t10 4l43 43l27 -27l-498 -498l-27 27
l414 414q10 10 0 20t-20 0l-414 -414l-29 29l498 498l29 -29l-43 -43q-10 -10 0 -20zM351 12l-29 28l498 498l29 -29zM146 -9l58 -58q-39 -12 -82 -22q12 41 24 80zM235 -57l-79 78q24 69 40 84l10 11l39 -39v0l86 -86l-11 -10q-15 -15 -85 -38zM891 552l-22 -23l-86 86v0
l-39 39l22 22q21 21 52 21q34 0 59 -25l6 -6q25 -25 27 -60q2 -33 -19 -54z" />
    <glyph glyph-name="uniE666" unicode="&#xe666;" 
d="M848 -19h-186q-13 0 -15 12l-9 50l-23 -53q-4 -9 -14 -9h-454q-11 0 -14.5 10t4.5 17q25 21 42.5 94t24.5 134q0 6 5 10t11 3q7 0 11 -5t3 -11q-2 -23 -6.5 -52.5t-18 -84t-31.5 -85.5h413l39 90q4 11 15.5 9.5t13.5 -12.5l16 -87h158v225q0 6 4.5 10.5t11 4.5t11 -4.5
t4.5 -10.5v-240q0 -6 -4.5 -10.5t-11.5 -4.5zM888 230h-721q-6 0 -10.5 4.5t-4.5 11.5v177q0 37 26 63t62 26h193v177q0 36 26 62t63 26h9q37 0 63 -26t26 -62v-177h195q36 0 62 -26t26 -63v-177q0 -7 -4.5 -11.5t-10.5 -4.5zM182 261h691v162q0 24 -17 41t-41 17h-211
q-6 0 -10.5 4.5t-4.5 10.5v193q0 24 -17 41t-41 17h-9q-24 0 -41 -17t-17 -41v-193q0 -6 -4.5 -10.5t-10.5 -4.5h-209q-24 0 -41 -17t-17 -41v-162z" />
    <glyph glyph-name="uniE667" unicode="&#xe667;" 
d="M514.5 408q-42.5 0 -72.5 30.5t-30 73.5t30 73.5t72.5 30.5t72.5 -30.5t30 -73.5t-30 -73.5t-72.5 -30.5zM514.5 585q-29.5 0 -51 -21.5t-21.5 -52t21.5 -52t51 -21.5t50.5 21.5t21 52t-21 52t-50.5 21.5zM514 142q-14 0 -56 38t-87.5 91.5t-80.5 121t-35 117.5
q0 110 76 187.5t183.5 77.5t183.5 -77.5t76 -187.5q0 -50 -34 -117t-78.5 -121t-87 -92t-60.5 -38zM514.5 745q-94.5 0 -162 -69t-67.5 -166q0 -44 31 -103t72 -107.5t77 -84t50 -42.5q15 6 51.5 42.5t76.5 85t70 107.5t30 102q0 97 -67 166t-161.5 69zM523 6q-5 0 -9 4
l-77 60l-305 1q-9 0 -13.5 9t2.5 16l163 199q5 6 12 6h83q6 0 10.5 -4.5t4.5 -11t-4.5 -11t-10.5 -4.5h-76l-138 -168l278 -2q5 0 9 -3l71 -56l71 57q4 4 9 4h263l-138 168h-73q-6 0 -10.5 4.5t-4.5 11t4.5 11t10.5 4.5h80q7 0 12 -6l163 -199q7 -7 2.5 -16t-13.5 -9h-290
l-76 -61q-5 -4 -10 -4z" />
    <glyph glyph-name="uniE668" unicode="&#xe668;" 
d="M459 16h-18q-167 1 -219 20q-12 -3 -25 -3q-35 0 -60 24t-25 59q0 21 10 50.5t25 51.5v34q0 69 11.5 134t39.5 128t68.5 109.5t103.5 75t141 28.5q55 0 104 -14l-9 -29q-44 13 -95 13q-72 0 -129.5 -26t-94.5 -69t-62.5 -101t-36 -120t-10.5 -129v-45l-3 -4
q-14 -17 -23 -43.5t-9 -43.5q0 -27 24 -43t50 -6l6 2l6 -2q44 -19 194 -20l-8 44l30 5zM562 16l12 74l30 -5l-6 -38q149 1 193 20l6 3l6 -3q10 -4 21 -4q22 0 38 15.5t16 37.5q0 17 -9 43.5t-23 43.5l-3 5v5v39q0 135 -41 239l28 12q44 -110 44 -251v-34q15 -22 25 -51.5
t10 -50.5q0 -35 -25 -59t-60 -24q-14 0 -27 4q-51 -20 -217 -21h-18zM511 62q-70 0 -122.5 41.5t-77.5 103t-25 130.5q0 27 10 46.5t22.5 28.5t34 14t33.5 6t32 1q15 0 45 -1q50 -2 100 0q34 2 48 2q18 0 29 -1t31 -6t32 -14.5t22 -29t10 -46.5q0 -69 -26 -131t-78.5 -103
t-119.5 -41zM418 402q-57 0 -79 -14t-22 -51q0 -63 21 -117.5t66.5 -90.5t106.5 -36q58 0 103 36t67.5 91.5t22.5 116.5q0 37 -20 51.5t-73 14.5q-15 0 -46 -1q-51 -3 -103 -1q-29 1 -44 1zM770 472q-41 0 -64 22q-24 25 -29 71q-48 5 -72 29q-23 22 -23 62.5t23 62.5
t63.5 22t63.5 -22q25 -24 29 -70q48 -5 73 -29q23 -22 23 -62.5t-23 -63t-64 -22.5zM668.5 711q-28.5 0 -42 -13.5t-13.5 -41t13 -40.5q9 -9 27.5 -15t37.5 -6h15l1 -15q0 -18 6 -36.5t15 -27.5q13 -12 42 -12t42 12q14 14 14 41.5t-14 40.5q-8 9 -27 15t-37 6h-16l-1 15
q1 18 -5 36t-15 27q-14 14 -42.5 14z" />
    <glyph glyph-name="uniE669" unicode="&#xe669;" 
d="M518 228q-63 0 -107.5 45t-44.5 107.5t44.5 107t107.5 44.5t107.5 -44.5t44.5 -107t-44.5 -107.5t-107.5 -45zM518 502q-50 0 -85.5 -36t-35.5 -86t35.5 -85.5t85.5 -35.5t85.5 35.5t35.5 85.5t-35.5 86t-85.5 36zM598 -18h-160q-6 0 -10.5 4.5t-4.5 10.5v60
q-35 10 -66 27l-43 -42q-4 -4 -10.5 -4t-10.5 4l-113 113q-11 11 0 22l42 42q-17 31 -28 66h-59q-6 0 -10.5 4.5t-4.5 10.5v160q0 7 4.5 11.5t10.5 4.5h59q11 34 28 66l-42 42q-5 4 -5 10.5t5 10.5l113 114q11 10 21 0l43 -42q31 17 66 27v59q0 7 4.5 11.5t10.5 4.5h160
q6 0 10.5 -4.5t4.5 -11.5v-59q35 -10 66 -27l42 42q5 4 11 4q7 0 11 -4l113 -114q11 -10 0 -21l-42 -42q17 -32 27 -66h60q6 0 10.5 -4.5t4.5 -11.5v-160q0 -6 -4.5 -10.5t-10.5 -4.5h-60q-10 -35 -27 -66l42 -42q11 -11 0 -22l-113 -113q-4 -4 -11 -4q-6 0 -11 4l-42 42
q-31 -17 -66 -27v-60q0 -6 -4.5 -10.5t-10.5 -4.5zM453 13h130v56q0 11 11 14q42 11 80 33q10 7 19 -2l39 -39l92 91l-40 40q-8 8 -2 18q22 38 33 80q3 12 15 12h56v129h-56q-12 0 -15 12q-11 42 -33 79q-6 11 2 19l40 40l-92 91l-39 -39q-9 -9 -19 -3q-37 22 -80 33
q-11 3 -11 15v56h-130v-56q0 -12 -11 -15q-43 -11 -80 -33q-10 -6 -19 3l-39 39l-92 -91l40 -40q8 -8 2 -19q-22 -37 -33 -79q-3 -12 -15 -12h-56v-129h56q12 0 15 -12q11 -42 33 -80q6 -10 -2 -18l-40 -40l92 -91l39 39q9 9 19 2q37 -22 80 -33q11 -3 11 -14v-56z" />
    <glyph glyph-name="uniE66A" unicode="&#xe66a;" 
d="M517 50q-23 0 -80 8q-87 9 -235 124l-5 3q-11 8 -31 10q-7 0 -11 5.5t-3 12.5q1 5 3 9q-23 14 -39 32q-6 8 -2 16.5t13 9.5q46 1 66.5 12.5t43.5 41.5q-15 52 -15.5 103.5t7.5 85.5t22 66t21 43l13 17q5 6 12 5q7 0 12 -6q52 -69 113 -142q42 11 92.5 11t99.5 -10
q70 98 103 137q4 5 11 5t12 -5q32 -39 48.5 -89t15.5 -97t-4.5 -75t-9.5 -51q14 -17 36 -36q21 -19 60 -17q17 0 22 -8q4 -9 -2 -16q-12 -17 -38 -33q2 -4 3 -8q2 -4 2 -8q0 -6 -4.5 -10.5t-10.5 -4.5h-1q-3 0 -6 1q-10 0 -24 -8l-5 -4q-24 -14 -53 -34q-45 -36 -90.5 -58.5
t-61.5 -26.5t-25 -5q-47 -6 -75 -6zM192 222q13 -4 23 -12l6 -4q141 -109 220 -118q66 -8 76 -8q27 0 71 7q8 1 22 4.5t56.5 24.5t84.5 54q30 22 55 37l5 3q9 6 20 9q-2 4 -2 8q1 9 9 13q8 5 16 9q-28 5 -49 24q-31 28 -45 47q-4 6 -2 13q2 6 5 18.5t7 46.5t3 66.5t-12 73
t-33 71.5q-51 -64 -95 -128q-1 -1 -12 4t-31.5 11.5t-40.5 7.5q-29 3 -73 2t-63.5 -2.5t-30.5 1.5q-33 42 -84 108q-12 -19 -21 -42t-18 -59t-7.5 -82.5t16.5 -94.5q3 -7 -2 -14q-24 -32 -44.5 -47.5t-57.5 -21.5q12 -8 18 -9q7 -2 10 -10q2 -6 0 -11zM687 617.5
q0 6.5 -4.5 11.5t-11 5t-11.5 -5t-5 -11q0 -7 5 -12q-26 -53 -36 -53h-1q-14 9 -3 107v3q6 0 11 4.5t5 11t-5 11.5t-11.5 5t-11 -5t-4.5 -11q0 -9 7 -14q-1 -1 -1 -2q-36 -94 -53 -94q-11 2 -20 40t-13 88q10 4 10 15q0 7 -4.5 11.5t-11 4.5t-11.5 -4.5t-5 -11.5
q0 -10 9 -14q-18 -129 -36 -131l-2 1q-2 1 -7.5 6.5t-11.5 14.5t-15 29t-19 47q8 5 8 14q0 6 -4.5 11t-11.5 5t-11.5 -5t-4.5 -11q0 -13 13 -16q14 -98 0 -110h-1q-6 0 -17.5 16t-21.5 36q6 5 6 13q0 6 -4.5 11t-11 5t-11.5 -5t-5 -11.5t4.5 -11t11.5 -4.5l17 -131
q1 -2 3 -4h3h2q65 26 123 26l11 -1q82 -1 130 -25q2 -1 4.5 0t2.5 4l17 131q6 0 10.5 4.5t4.5 11z" />
    <glyph glyph-name="uniE66B" unicode="&#xe66b;" 
d="M799 97h-576q-46 0 -78.5 32.5t-32.5 78.5v352q0 46 32.5 79t78.5 33h576q46 0 79 -33t33 -79v-352q0 -46 -33 -78.5t-79 -32.5zM223 641q-33 0 -56.5 -23.5t-23.5 -57.5v-352q0 -33 23.5 -56.5t56.5 -23.5h576q34 0 57.5 23.5t23.5 56.5v352q0 34 -23.5 57.5t-57.5 23.5
h-576zM151 512h720q7 0 11.5 -4.5t4.5 -11t-4.5 -11.5t-11.5 -5h-720q-6 0 -11 5t-5 11.5t5 11t11 4.5zM719 336h64q7 0 11.5 -4.5t4.5 -11t-4.5 -11.5t-11.5 -5h-64q-6 0 -11 5t-5 11.5t5 11t11 4.5zM719 272h64q7 0 11.5 -4.5t4.5 -11t-4.5 -11.5t-11.5 -5h-64q-6 0 -11 5
t-5 11.5t5 11t11 4.5zM719 336h64q7 0 11.5 -4.5t4.5 -11t-4.5 -11.5t-11.5 -5h-64q-6 0 -11 5t-5 11.5t5 11t11 4.5zM239 416h288q7 0 11.5 -4.5t4.5 -11t-4.5 -11.5t-11.5 -5h-288q-6 0 -11 5t-5 11.5t5 11t11 4.5z" />
    <glyph glyph-name="uniE66C" unicode="&#xe66c;" 
d="M793 95h-565q-49 0 -83 34.5t-34 82.5v345q0 49 34 83t83 34h565q48 0 82.5 -34t34.5 -83v-345q0 -48 -34.5 -82.5t-82.5 -34.5zM228 629q-30 0 -51 -21t-21 -51v-345q0 -30 21 -51t51 -21h565q29 0 50 21t21 51v345q0 30 -21 51t-50 21h-565zM240 416h315q10 0 17 -7
t7 -16.5t-7 -16.5t-17 -7h-315q-10 0 -17 7t-7 16.5t7 16.5t17 7zM660 341h135q10 0 17 -7t7 -17t-7 -16.5t-17 -6.5h-135q-10 0 -17 6.5t-7 16.5t7 17t17 7zM660 245h135q10 0 17 -7t7 -16.5t-7 -16.5t-17 -7h-135q-10 0 -17 7t-7 16.5t7 16.5t17 7zM147 514h728
q10 0 16.5 -7t6.5 -16.5t-6.5 -16.5t-16.5 -7h-728q-9 0 -16 7t-7 16.5t7 16.5t16 7z" />
    <glyph glyph-name="uniE66D" unicode="&#xe66d;" 
d="M512 748q-185 0 -316.5 -131.5t-131.5 -316.5t131.5 -316.5t316.5 -131.5t316.5 131.5t131.5 316.5t-131.5 316.5t-316.5 131.5zM512 -84q-159 0 -271.5 112.5t-112.5 271.5t112.5 271.5t271.5 112.5t271.5 -112.5t112.5 -271.5t-112.5 -271.5t-271.5 -112.5zM761 445
l-317 -317l-181 181l-45 -45l181 -181l45 -45l45 45l317 317z" />
    <glyph glyph-name="uniE66E" unicode="&#xe66e;" 
d="M952 56q-7 -38 -40 -74t-82 -37q-2 0 -34 -1t-56.5 -1t-74.5 2v0q-46 0 -105 58q-18 -3 -33 -3q-28 0 -56 6q-60 -60 -108 -60q-141 0 -166 -1q-31 0 -56 11.5t-40 30t-24 37.5t-11 37q-5 31 0 58.5t21 73.5q7 20 13 74.5t22 130.5t47 153q58 139 142.5 209.5t215.5 65.5
q43 -2 92 -21q29 14 65.5 8.5t64.5 -29.5q45 -38 39 -90q56 6 100 -36q33 -31 40 -73.5t-14 -75.5q2 -13 8 -146.5t18 -169.5q14 -45 16 -77t-4 -60zM527 56q91 0 155.5 64t64.5 156q0 77 -48 137h-344q-48 -60 -48 -137q0 -92 64.5 -156t155.5 -64zM711 754q-25 13 -50 10
t-37 -20q-11 -17 -2 -39t35 -32q14 -8 39.5 -6.5t35.5 16.5q13 16 7.5 37.5t-28.5 33.5zM885 606q-20 31 -62.5 43t-65.5 -6q-24 -18 -22.5 -50t27 -59t60 -30t55.5 19q16 17 18.5 38.5t-10.5 44.5zM885 193q-8 24 -12.5 73.5t-7.5 114t-4 86.5q-30 -10 -64 -2t-60 33
t-36 57t-3 62q-51 -3 -91 31q-27 23 -35.5 55t4.5 60q-27 8 -49 8q-104 0 -178 -61t-125 -187q-29 -73 -45 -142.5t-23.5 -119t-13.5 -68.5q-28 -80 -21 -116q14 -77 103 -77q8 1 55 0.5t55 -0.5q56 3 86 23q-75 34 -121.5 106t-46.5 160q0 100 59 179h432q59 -79 59 -179
q0 -89 -47.5 -161.5t-123.5 -105.5q17 -16 61 -22q125 -1 138 0q64 8 73 101q3 24 -18 92z" />
    <glyph glyph-name="uniE66F" unicode="&#xe66f;" 
d="M888 -62h-56q0 122 -87 211t-213 97q-15 -1 -21 -1t-21 1q-126 -8 -213.5 -97t-87.5 -211h-55q0 115 67.5 207.5t176.5 131.5q-73 37 -117 107t-44 154q0 122 86 207.5t207.5 85.5t207.5 -85.5t86 -207.5q0 -84 -44 -154t-116 -107q108 -39 176 -131.5t68 -207.5z
M751 538.5q0 99.5 -70.5 169.5t-170 70t-169.5 -70t-70 -169.5t70 -170t169.5 -70.5t170 70.5t70.5 170z" />
    <glyph glyph-name="uniE670" unicode="&#xe670;" horiz-adv-x="1025" 
d="M601 -120h-298q-68 0 -116.5 48.5t-48.5 116.5v357h-85q-22 0 -29.5 21t8.5 35l469 415q10 8 22 8t21 -8l469 -415q17 -14 9 -35t-30 -21h-84v-357q0 -43 -20.5 -80t-57.5 -60q-11 -7 -24 -4t-20 14.5t-4 24t14 19.5q48 30 48 86v389q0 14 9 23t23 9h32l-385 341
l-385 -341h32q13 0 22.5 -9t9.5 -23v-389q0 -42 29.5 -71.5t71.5 -29.5h298q13 0 22.5 -9.5t9.5 -22.5t-9.5 -22.5t-22.5 -9.5zM600 -120q-13 0 -22.5 9.5t-9.5 22.5t9.5 22.5t22.5 9.5q15 0 25 10t10 25v320q0 14 -10 24t-25 10h-155q-15 0 -25 -10t-10 -24v-251
q0 -14 -9 -23t-22.5 -9t-23 9t-9.5 23v251q0 41 29 69.5t70 28.5h155q41 0 70 -28.5t29 -69.5v-320q0 -41 -29 -70t-70 -29z" />
    <glyph glyph-name="uniE671" unicode="&#xe671;" 
d="M213 826h620q13 0 21.5 9t8.5 21.5t-8.5 21t-21.5 8.5h-620q-13 0 -21.5 -8.5t-8.5 -21t8.5 -21.5t21.5 -9zM833 727h-620q-13 0 -21.5 -9t-8.5 -21.5t8.5 -21t21.5 -8.5h620q13 0 21.5 8.5t8.5 21t-8.5 21.5t-21.5 9zM833 567h-620q-13 0 -21.5 -8.5t-8.5 -21t8.5 -21.5
t21.5 -9h620q13 0 21.5 9t8.5 21.5t-8.5 21t-21.5 8.5zM833 408h-620q-13 0 -21.5 -9t-8.5 -21.5t8.5 -21t21.5 -8.5h620q13 0 21.5 8.5t8.5 21t-8.5 21.5t-21.5 9zM479 -29v38h-131q1 8 2 18h-42q-1 -10 -2 -18h-124v-38h109q-28 -35 -112 -48q11 -14 26 -38q108 26 126 81
q39 -63 123 -81q9 14 28 39q-73 8 -111 47h108zM187 89h96q-33 -23 -92 -35q12 -19 20 -38q61 18 97 49v-29h43v25q61 -26 103 -46l17 36q-48 18 -105 38h107v37h-69q22 16 49 39l-28 26q-30 -26 -53 -44l21 -21h-42v67h-43v-67h-39l23 23q-29 23 -56 42l-24 -26
q25 -19 47 -39h-72v-37zM590 -113h44v22h157v-22h45v288h-246v-288zM634 134h157v-34h-157v34zM634 60h157v-34h-157v34zM634 -14h157v-36h-157v36z" />
    <glyph glyph-name="uniE672" unicode="&#xe672;" 
d="M338 718q0 -20 14 -34t34 -14t34 14t14 34t-14 34t-34 14t-34 -14t-14 -34zM556.5 395.5q-3.5 11.5 -14 17.5t-21.5 3q-55 -15 -109.5 -0.5t-94.5 54.5q-61 61 -61 148t61.5 148t148 61t148 -61t61.5 -148t-62 -148q-8 -9 -8 -21t8 -20q0 -1 5 -4l4 -5l136 -136
q8 -9 20.5 -9t21 9t8.5 21t-9 20l-125 125q59 74 59 168q0 111 -78.5 189.5t-189.5 78.5t-189 -78.5t-78 -189.5t78 -189.5t190 -78.5q35 0 70 10q12 3 18 13.5t2.5 22zM262 54l-26 -6v48h24v40h-24v55h-38v-55h-30v-40h30v-57l-33 -7l3 -43q13 4 30 8v-54q0 -13 -11 -13
h-20q5 -22 9 -40q40 -2 50 7t10 29v81l25 6q0 16 1 41zM453 -16v36h-70v18h79v136h-73v-32h38v-20h-34v-30h34v-21h-44v125h-38v-45l-19 32q-35 -12 -58 -16v-129h77v-18h-76v-34h30l-16 -9q18 -23 40 -40q-32 -9 -74 -14q9 -19 16 -38q54 10 96 29q43 -21 99 -27
q7 16 17 36q-42 4 -74 14q30 20 50 47zM303 71v21h32v30h-32v18q19 3 42 10v-79h-42zM319 -14h90q-18 -19 -46 -33q-26 14 -44 33zM627 -32q-40 -28 -80 -45q13 -19 21 -33q41 20 84 50zM817 -39l28 27q-31 25 -74 55l-27 -22l22 -18l-116 -5q95 35 141 61l-30 26
q-21 -13 -42 -25h-57q27 13 52 27h92v-32h43v64h-125v22h117v32h-117v22h-43v-22h-117v-32h117v-22h-124v-65h43l9 -25q17 2 55 4q-42 -19 -90 -34l12 -33q26 2 98 5v-33q0 -8 -4.5 -11t-15.5 -3q-12 0 -29 2q5 -15 9 -38q45 0 57 2t18.5 10t6.5 22v51l73 3q7 -6 18 -15z
M600 58v29h55q-30 -19 -55 -29zM766 -32l-20 -32q41 -18 91 -45l21 34q-47 23 -92 43z" />
    <glyph glyph-name="uniE673" unicode="&#xe673;" 
d="M888 233q-27 -60 -95 -60h-493q-27 0 -46 18t-27 42q-4 13 -20.5 120.5t-32 217.5t-17.5 117q-8 46 -19 64q-7 12 -16 15.5t-42 8.5q-11 2 -14.5 15.5t1 26.5t13.5 13q26 -1 42 -3q12 -2 23 -6t25.5 -16t19.5 -30q5 -17 12.5 -51t12.5 -60l5 -26h656q32 0 57 -14.5
t25 -41.5l-13 -77t-30 -164.5t-27 -108.5zM848 584h-548q-2 0 -10 0.5t-10 0t-8.5 -2t-9.5 -4t-8 -8t-9 -13.5q-3 -5 -4 -15t-0.5 -23.5t1.5 -27t3.5 -33t5 -33t6 -34t5.5 -31t6 -29t4 -21.5q9 -47 17.5 -64.5t27.5 -17.5h476q10 0 16 1.5t15 8.5t16.5 23t13.5 42
q13 60 28.5 142t18.5 105q2 20 -11.5 27t-41.5 7zM368 131q40 0 68 -28t28 -68t-28 -68t-68 -28t-68 28t-28 68t28 68t68 28zM368 -6q17 0 29 12t12 29t-12 29t-29 12t-29 -12t-12 -29t12 -29t29 -12zM733 131q40 0 68 -28t28 -68t-28 -68t-68 -28t-68 28t-28 68t28 68
t68 28zM733 -6q17 0 29 12t12 29t-12 29t-29 12t-29 -12t-12 -29t12 -29t29 -12z" />
    <glyph glyph-name="uniE674" unicode="&#xe674;" 
d="M508 652l-352 -329v-328h423v329h142v-329h141v329zM440 728h138v-51h-138v51zM95 315l-45 48l390 365l45 -48zM977 364l-46 -51l-399 364l46 51zM297 273h140v-142h-140v142zM669 729v-90l94 -94v184h-94z" />
    <glyph glyph-name="uniE675" unicode="&#xe675;" 
d="M999 560q0 -24 -17 -41l-430 -431q-17 -17 -41.5 -17t-41.5 17l-430 431q-18 17 -18 41t17.5 41.5t41.5 17.5t42 -18l388 -388l389 388q17 18 41.5 18t41.5 -17.5t17 -41.5z" />
    <glyph glyph-name="uniE676" unicode="&#xe676;" 
d="M775 358l-436 437q-18 17 -42.5 17t-41.5 -17.5t-17 -42t17 -41.5l415 -416l-405 -406q-17 -16 -17 -40t16.5 -40.5t40.5 -16.5t41 16l420 421q22 22 15 52q13 17 11.5 39t-17.5 38z" />
    <glyph glyph-name="uniE677" unicode="&#xe677;" 
d="M701 370l-348 -347q-6 -6 -14.5 -6t-14.5 6t-6 14.5t6 14.5l332 332l-333 332q-6 6 -6 14.5t6 14.5t14.5 6t14.5 -6l343 -343q4 -1 6 -3q6 -6 6 -14.5t-6 -14.5z" />
    <glyph glyph-name="uniE678" unicode="&#xe678;" 
d="M323 370l1 -1l347 -346q6 -6 14.5 -6t14.5 6t6 14.5t-6 14.5l-332 332l333 332q6 6 6 14.5t-6 14.5t-14.5 6t-14.5 -6l-343 -342q-4 -2 -6 -4q-6 -6 -6 -14.5t6 -14.5z" />
    <glyph glyph-name="uniE679" unicode="&#xe679;" 
d="M246 722v-113h758v113h-758zM246 307h758v114h-758v-114zM246 6h758v113h-758v-113zM20 609h103v113h-103v-113zM20 302h103v113h-103v-113zM20 15h103v114h-103v-114z" />
    <glyph glyph-name="uniE67A" unicode="&#xe67a;" 
d="M360 -7h60v297h-48q-2 -17 -10 -28t-20 -19q-12 -7 -27 -9q-14 -3 -30 -3v-45h75v-193zM633.5 54.5q-6.5 -7.5 -16.5 -12.5q-9 -5 -21 -5q-21 0 -34 12t-15 33h-60q0 -24 9 -42q9 -17 25 -29q15 -12 35 -18q19 -5 41 -5q22 -1 43 7q19 8 34.5 22.5t24.5 34t9 42.5
q0 21 -7 39q-6 19 -18 33q-11 13 -28 21t-39 8q-18 0 -32 -5t-26 -18l-1 1l12 68h122v49h-166l-29 -164h54q10 12 20 18t26 6q12 0 21.5 -4.5t16.5 -11.5q6 -8 9.5 -18t3.5 -22q0 -11 -3 -21q-4 -11 -10.5 -18.5zM229 571h71q7 0 13 5.5t6 13.5v155q0 8 -6 13.5t-13 5.5h-71
q-8 0 -13.5 -5.5t-5.5 -13.5v-155q0 -8 5.5 -13.5t13.5 -5.5zM725 571h70q8 0 13.5 5.5t5.5 13.5v155q0 8 -5.5 13.5t-13.5 5.5h-70q-8 0 -14 -5.5t-6 -13.5v-155q0 -8 6 -13.5t14 -5.5zM878 690h-25v-100q0 -24 -17 -41t-41 -17h-70q-24 0 -41.5 17t-17.5 41v100h-308v-100
q0 -24 -17 -41t-41 -17h-71q-24 0 -41 17t-17 41v100h-25q-46 0 -79 -32.5t-33 -79.5v-207v-423q0 -46 33 -79t79 -33h732q46 0 79 33t33 79v423v207q0 47 -33 79.5t-79 32.5zM919 -52q0 -17 -12 -29t-29 -12h-732q-17 0 -29 12t-12 29v423h814v-423z" />
  </font>
</defs>
</svg>
